<svg xmlns="http://www.w3.org/2000/svg" xmlns:xlink="http://www.w3.org/1999/xlink" width="1080" zoomAndPan="magnify" viewBox="0 0 810 1439.999935" height="1920" preserveAspectRatio="xMidYMid meet" version="1.0"><defs><clipPath id="id1"><path d="M 159.574219 1204 L 383.824219 1204 L 383.824219 1366.957031 L 159.574219 1366.957031 Z M 159.574219 1204 " clip-rule="nonzero"/></clipPath><clipPath id="id2"><path d="M 303.238281 139 L 527.488281 139 L 527.488281 301.777344 L 303.238281 301.777344 Z M 303.238281 139 " clip-rule="nonzero"/></clipPath><clipPath id="id3"><path d="M 570 1060 L 681.75 1060 L 681.75 1140.894531 L 570 1140.894531 Z M 570 1060 " clip-rule="nonzero"/></clipPath><clipPath id="id4"><path d="M 119.074219 54 L 200.074219 54 L 200.074219 113.171875 L 119.074219 113.171875 Z M 119.074219 54 " clip-rule="nonzero"/></clipPath></defs><g clip-path="url(#id1)"><path fill="rgb(54.899597%, 80.389404%, 69.018555%)" d="M 281.898438 1366.929688 C 279.632812 1366.929688 277.367188 1366.929688 275.105469 1366.929688 C 269.6875 1365.582031 264.046875 1364.804688 258.910156 1362.757812 C 251.164062 1359.675781 245.082031 1354.207031 240.828125 1346.667969 C 231.464844 1350.582031 222 1351.953125 212.160156 1350.144531 C 195.65625 1347.109375 183.480469 1336.445312 180.378906 1321.960938 C 178.855469 1314.855469 180.148438 1307.992188 183.269531 1301.527344 C 167.089844 1292.464844 164.5625 1289.371094 159.613281 1272.679688 C 159.613281 1270.414062 159.613281 1268.148438 159.613281 1265.886719 C 159.808594 1265.699219 160.140625 1265.535156 160.179688 1265.324219 C 162.960938 1249.5625 173.269531 1240.890625 187.839844 1236.75 C 193.308594 1235.195312 199.171875 1235.035156 204.835938 1234.242188 C 208.976562 1218.355469 219.851562 1209.4375 235.5625 1206.0625 C 251.214844 1202.703125 265.191406 1206.445312 277.125 1217.261719 C 286.8125 1210.191406 297.449219 1207.007812 309.136719 1208.03125 C 324.292969 1209.363281 336.652344 1215.621094 343.394531 1229.914062 C 345.546875 1234.480469 346.015625 1239.839844 347.308594 1245.03125 C 362.886719 1247.558594 372.0625 1252.648438 378.742188 1263.730469 C 381.136719 1267.703125 382.152344 1272.503906 383.796875 1276.921875 C 383.796875 1278.90625 383.796875 1280.886719 383.796875 1282.867188 C 382.179688 1291.84375 378.105469 1299.480469 371.109375 1305.238281 C 383.160156 1325.296875 372.691406 1345.4375 355.148438 1353.371094 C 341.628906 1359.484375 328.089844 1359.316406 314.738281 1352.867188 C 312.425781 1351.75 311.148438 1352.117188 309.292969 1353.75 C 305.945312 1356.691406 302.511719 1359.871094 298.539062 1361.679688 C 293.28125 1364.070312 287.46875 1365.238281 281.898438 1366.929688 Z M 281.898438 1366.929688 " fill-opacity="1" fill-rule="nonzero"/></g><g clip-path="url(#id2)"><path fill="rgb(54.899597%, 80.389404%, 69.018555%)" d="M 425.5625 301.746094 C 423.296875 301.746094 421.035156 301.746094 418.769531 301.746094 C 413.351562 300.402344 407.710938 299.621094 402.574219 297.578125 C 394.828125 294.492188 388.746094 289.023438 384.492188 281.484375 C 375.128906 285.398438 365.664062 286.769531 355.824219 284.960938 C 339.320312 281.929688 327.144531 271.261719 324.042969 256.777344 C 322.523438 249.671875 323.8125 242.808594 326.933594 236.34375 C 310.753906 227.285156 308.226562 224.1875 303.28125 207.496094 C 303.28125 205.230469 303.28125 202.96875 303.28125 200.703125 C 303.476562 200.515625 303.804688 200.355469 303.84375 200.140625 C 306.625 184.378906 316.933594 175.707031 331.507812 171.566406 C 336.972656 170.011719 342.839844 169.851562 348.503906 169.058594 C 352.640625 153.171875 363.515625 144.253906 379.230469 140.878906 C 394.878906 137.519531 408.855469 141.261719 420.789062 152.078125 C 430.480469 145.007812 441.117188 141.824219 452.804688 142.851562 C 467.957031 144.179688 480.320312 150.4375 487.058594 164.730469 C 489.210938 169.296875 489.683594 174.65625 490.972656 179.851562 C 506.550781 182.375 515.726562 187.464844 522.410156 198.550781 C 524.800781 202.519531 525.820312 207.320312 527.460938 211.742188 C 527.460938 213.722656 527.460938 215.703125 527.460938 217.683594 C 525.847656 226.660156 521.769531 234.296875 514.773438 240.054688 C 526.824219 260.113281 516.359375 280.253906 498.8125 288.1875 C 485.296875 294.300781 471.753906 294.136719 458.402344 287.6875 C 456.09375 286.566406 454.816406 286.933594 452.957031 288.570312 C 449.609375 291.507812 446.179688 294.6875 442.203125 296.496094 C 436.949219 298.886719 431.136719 300.054688 425.5625 301.746094 Z M 425.5625 301.746094 " fill-opacity="1" fill-rule="nonzero"/></g><g clip-path="url(#id3)"><path fill="rgb(54.899597%, 80.389404%, 69.018555%)" d="M 630.957031 1140.878906 C 629.828125 1140.878906 628.699219 1140.878906 627.570312 1140.878906 C 624.871094 1140.210938 622.058594 1139.820312 619.5 1138.804688 C 615.640625 1137.269531 612.609375 1134.546875 610.488281 1130.792969 C 605.824219 1132.742188 601.105469 1133.425781 596.203125 1132.527344 C 587.980469 1131.015625 581.910156 1125.707031 580.367188 1118.496094 C 579.605469 1114.960938 580.25 1111.546875 581.804688 1108.328125 C 573.742188 1103.816406 572.484375 1102.277344 570.015625 1093.96875 C 570.015625 1092.84375 570.015625 1091.714844 570.015625 1090.589844 C 570.113281 1090.496094 570.28125 1090.414062 570.296875 1090.308594 C 571.683594 1082.464844 576.820312 1078.148438 584.082031 1076.085938 C 586.808594 1075.3125 589.730469 1075.234375 592.554688 1074.839844 C 594.617188 1066.929688 600.035156 1062.492188 607.867188 1060.8125 C 615.664062 1059.140625 622.632812 1061.003906 628.578125 1066.386719 C 633.40625 1062.867188 638.707031 1061.285156 644.53125 1061.792969 C 652.085938 1062.457031 658.246094 1065.570312 661.601562 1072.683594 C 662.675781 1074.957031 662.910156 1077.625 663.554688 1080.210938 C 671.316406 1081.464844 675.890625 1084 679.21875 1089.515625 C 680.410156 1091.492188 680.917969 1093.882812 681.738281 1096.082031 C 681.738281 1097.066406 681.738281 1098.054688 681.738281 1099.039062 C 680.933594 1103.507812 678.902344 1107.308594 675.414062 1110.175781 C 681.421875 1120.15625 676.203125 1130.183594 667.460938 1134.132812 C 660.722656 1137.171875 653.976562 1137.089844 647.320312 1133.882812 C 646.171875 1133.324219 645.535156 1133.507812 644.609375 1134.320312 C 642.941406 1135.785156 641.230469 1137.367188 639.25 1138.265625 C 636.628906 1139.457031 633.734375 1140.035156 630.957031 1140.878906 Z M 630.957031 1140.878906 " fill-opacity="1" fill-rule="nonzero"/></g><g clip-path="url(#id4)"><path fill="rgb(54.899597%, 80.389404%, 69.018555%)" d="M 163.257812 113.164062 C 162.441406 113.164062 161.621094 113.164062 160.804688 113.164062 C 158.847656 112.675781 156.808594 112.394531 154.953125 111.65625 C 152.15625 110.542969 149.960938 108.574219 148.421875 105.851562 C 145.039062 107.265625 141.621094 107.757812 138.066406 107.105469 C 132.105469 106.011719 127.710938 102.164062 126.589844 96.941406 C 126.039062 94.375 126.503906 91.902344 127.632812 89.570312 C 121.789062 86.300781 120.875 85.183594 119.089844 79.164062 C 119.089844 78.347656 119.089844 77.527344 119.089844 76.710938 C 119.160156 76.644531 119.277344 76.585938 119.292969 76.507812 C 120.296875 70.824219 124.019531 67.695312 129.285156 66.203125 C 131.257812 65.640625 133.378906 65.582031 135.421875 65.296875 C 136.917969 59.566406 140.847656 56.347656 146.523438 55.132812 C 152.175781 53.921875 157.222656 55.269531 161.535156 59.171875 C 165.035156 56.621094 168.875 55.472656 173.097656 55.84375 C 178.570312 56.324219 183.035156 58.582031 185.46875 63.738281 C 186.246094 65.382812 186.417969 67.316406 186.882812 69.191406 C 192.511719 70.101562 195.824219 71.9375 198.238281 75.933594 C 199.105469 77.367188 199.472656 79.097656 200.066406 80.695312 C 200.066406 81.410156 200.066406 82.125 200.066406 82.839844 C 199.480469 86.078125 198.007812 88.832031 195.480469 90.90625 C 199.835938 98.144531 196.054688 105.410156 189.714844 108.269531 C 184.832031 110.476562 179.941406 110.417969 175.121094 108.089844 C 174.285156 107.6875 173.824219 107.820312 173.152344 108.410156 C 171.945312 109.46875 170.703125 110.617188 169.269531 111.269531 C 167.371094 112.128906 165.269531 112.550781 163.257812 113.164062 Z M 163.257812 113.164062 " fill-opacity="1" fill-rule="nonzero"/></g></svg>