<svg xmlns="http://www.w3.org/2000/svg" xmlns:xlink="http://www.w3.org/1999/xlink" width="1080" zoomAndPan="magnify" viewBox="0 0 810 1439.999935" height="1920" preserveAspectRatio="xMidYMid meet" version="1.0"><defs><clipPath id="id1"><path d="M 0 221 L 159.53125 221 L 159.53125 354.53125 L 0 354.53125 Z M 0 221 " clip-rule="nonzero"/></clipPath><clipPath id="id2"><path d="M 626 1175 L 810 1175 L 810 1335.6875 L 626 1335.6875 Z M 626 1175 " clip-rule="nonzero"/></clipPath><clipPath id="id3"><path d="M 159.574219 1204 L 383.824219 1204 L 383.824219 1366.957031 L 159.574219 1366.957031 Z M 159.574219 1204 " clip-rule="nonzero"/></clipPath><clipPath id="id4"><path d="M 0 1008 L 400 1008 L 400 1273.9375 L 0 1273.9375 Z M 0 1008 " clip-rule="nonzero"/></clipPath><clipPath id="id5"><path d="M 303.238281 139 L 527.488281 139 L 527.488281 301.777344 L 303.238281 301.777344 Z M 303.238281 139 " clip-rule="nonzero"/></clipPath><clipPath id="id6"><path d="M 455.347656 67.28125 L 753.097656 67.28125 L 753.097656 287.03125 L 455.347656 287.03125 Z M 455.347656 67.28125 " clip-rule="nonzero"/></clipPath><clipPath id="id7"><path d="M 200 22 L 343.695312 22 L 343.695312 113.558594 L 200 113.558594 Z M 200 22 " clip-rule="nonzero"/></clipPath><clipPath id="id8"><path d="M 570 1060 L 681.75 1060 L 681.75 1140.894531 L 570 1140.894531 Z M 570 1060 " clip-rule="nonzero"/></clipPath><clipPath id="id9"><path d="M 400 1012 L 603.902344 1012 L 603.902344 1140.566406 L 400 1140.566406 Z M 400 1012 " clip-rule="nonzero"/></clipPath></defs><path fill="rgb(100%, 100%, 100%)" d="M 158.261719 312.753906 C 157.984375 324.085938 149.136719 334.167969 138.355469 337.648438 C 129.265625 340.589844 119.238281 339.335938 110.453125 335.441406 C 109.074219 338.570312 106.394531 341.152344 103.101562 342.117188 C 98.824219 343.375 93.933594 341.78125 90.984375 338.472656 C 87.082031 342.632812 82.09375 345.828125 76.800781 348.003906 C 68.78125 351.304688 60.054688 352.46875 51.40625 353.109375 C 43.308594 353.695312 34.9375 353.804688 27.347656 350.929688 C 21.378906 348.667969 15.949219 344.1875 13.414062 338.460938 C 10.191406 342.238281 4.699219 344.109375 -0.101562 342.671875 C -4.730469 341.289062 -8.214844 336.960938 -9.019531 332.226562 C -11.460938 334.101562 -14.066406 335.753906 -16.859375 337.054688 C -23.085938 339.964844 -30.398438 341.003906 -36.886719 338.753906 C -43.375 336.503906 -48.757812 330.582031 -49.285156 323.726562 C -49.726562 317.957031 -46.859375 312.425781 -43.304688 307.863281 C -36.78125 299.519531 -27.601562 293.304688 -17.464844 290.277344 C -20.058594 289.195312 -22.339844 287.230469 -23.75 284.777344 C -26.332031 280.289062 -26.230469 274.582031 -24.253906 269.800781 C -22.277344 265.015625 -18.613281 261.089844 -14.453125 258.007812 C -3.9375 250.226562 10.1875 247.617188 22.816406 250.957031 C 22.378906 247.097656 23.160156 243.070312 24.882812 239.566406 C 27.488281 234.28125 32.066406 230.148438 37.21875 227.304688 C 49.527344 220.523438 65.585938 221.179688 77.296875 228.953125 C 87.25 235.554688 93.703125 247.046875 94.53125 258.941406 C 98.035156 258.054688 101.878906 258.472656 105.039062 260.242188 C 109.488281 262.738281 112.347656 267.800781 112.273438 272.898438 C 116.78125 268.683594 124.390625 268.171875 129.359375 271.875 C 133.414062 274.890625 135.285156 280.378906 134.363281 285.300781 C 139.804688 286.46875 144.96875 288.898438 149.125 292.585938 C 154.816406 297.644531 158.453125 305.140625 158.261719 312.753906 Z M 158.261719 312.753906 " fill-opacity="1" fill-rule="nonzero"/><g clip-path="url(#id1)"><path fill="rgb(100%, 100%, 100%)" d="M 152.480469 294.582031 C 148.089844 289.507812 141.960938 286.226562 135.488281 284.667969 C 136.238281 278.886719 133.53125 272.75 128.214844 270.070312 C 123.523438 267.695312 117.554688 268.148438 113.199219 271.066406 C 112.761719 267.269531 110.9375 263.683594 108 261.167969 C 104.550781 258.210938 99.902344 257.164062 95.480469 257.902344 C 94.171875 244.175781 85.652344 231.359375 73.058594 225.527344 C 60.128906 219.53125 43.902344 220.75 32.417969 229.378906 C 25.9375 234.25 21.394531 241.582031 21.695312 249.796875 C 11.78125 247.585938 1.164062 248.777344 -8.011719 253.15625 C -17.242188 257.566406 -26.757812 266.011719 -26.75 277.0625 C -26.746094 282.433594 -24.289062 287.417969 -19.746094 290.144531 C -25.382812 292.097656 -30.679688 294.953125 -35.371094 298.65625 C -40.617188 302.785156 -45.507812 308.039062 -48.335938 314.144531 C -51.121094 320.148438 -51.078125 326.894531 -47.09375 332.347656 C -43.3125 337.523438 -37.34375 340.394531 -31.015625 340.78125 C -23.289062 341.25 -15.921875 338.234375 -9.714844 333.828125 C -8.398438 338.414062 -4.84375 342.324219 -0.171875 343.578125 C 4.488281 344.832031 9.550781 343.292969 13.074219 340.09375 C 15.296875 344.25 18.882812 347.585938 22.96875 349.894531 C 27.980469 352.726562 33.773438 353.867188 39.46875 354.191406 C 45.652344 354.542969 51.929688 354.039062 58.078125 353.328125 C 64.117188 352.625 70.121094 351.445312 75.824219 349.296875 C 81.4375 347.179688 86.65625 344.027344 90.933594 339.8125 C 93.816406 342.492188 97.851562 343.804688 101.761719 343.261719 C 105.714844 342.710938 109.039062 340.066406 110.9375 336.632812 C 119.28125 340.066406 128.710938 341.304688 137.480469 338.789062 C 144.953125 336.648438 151.519531 331.734375 155.566406 325.074219 C 157.820312 321.359375 159.167969 317.113281 159.300781 312.761719 C 159.414062 306.058594 156.839844 299.625 152.480469 294.582031 Z M 147.773438 331.40625 C 141.601562 336.628906 133.679688 338.828125 125.675781 338.359375 C 120.628906 338.0625 115.675781 336.734375 111.058594 334.707031 C 110.511719 334.464844 109.75 334.628906 109.480469 335.214844 C 107.988281 338.496094 105.074219 341.132812 101.414062 341.621094 C 97.8125 342.097656 94.195312 340.503906 91.785156 337.867188 C 91.347656 337.386719 90.511719 337.652344 90.140625 338.042969 C 82.265625 346.355469 71.066406 349.878906 60.011719 351.394531 C 54.304688 352.175781 48.488281 352.648438 42.730469 352.59375 C 37.007812 352.539062 31.109375 351.804688 25.890625 349.3125 C 20.933594 346.949219 16.652344 343.085938 14.359375 338.035156 C 14.050781 337.347656 12.957031 337.597656 12.570312 338.039062 C 9.574219 341.460938 4.699219 343.183594 0.269531 341.855469 C -4.109375 340.539062 -7.195312 336.398438 -7.992188 332.007812 C -8.132812 331.25 -9.207031 331.257812 -9.6875 331.625 C -15.078125 335.734375 -21.414062 338.835938 -28.289062 339.101562 C -34.359375 339.335938 -40.285156 337.222656 -44.328125 332.589844 C -48.445312 327.871094 -49.230469 321.664062 -46.949219 315.894531 C -44.636719 310.066406 -40.191406 305.023438 -35.457031 301.011719 C -30.15625 296.519531 -23.945312 293.113281 -17.289062 291.105469 C -16.648438 290.910156 -15.941406 289.945312 -16.859375 289.546875 C -21.613281 287.488281 -24.382812 282.96875 -24.65625 277.859375 C -24.929688 272.78125 -22.835938 267.941406 -19.644531 264.082031 C -13.363281 256.488281 -3.585938 252.003906 6.050781 250.742188 C 11.527344 250.023438 17.117188 250.390625 22.457031 251.777344 C 23.121094 251.949219 23.925781 251.472656 23.847656 250.742188 C 22.292969 235.601562 37.519531 225.519531 50.820312 223.796875 C 64.292969 222.050781 77.96875 227.644531 85.992188 238.671875 C 90.347656 244.660156 92.964844 251.78125 93.511719 259.164062 C 93.550781 259.6875 94.3125 259.859375 94.710938 259.765625 C 98.910156 258.761719 103.394531 259.65625 106.644531 262.574219 C 109.539062 265.175781 111.253906 269.003906 111.242188 272.898438 C 111.238281 273.730469 112.371094 274.027344 112.945312 273.507812 C 116.773438 270.015625 122.683594 269.207031 127.277344 271.671875 C 132.082031 274.253906 134.25 280.082031 133.332031 285.296875 C 133.261719 285.707031 133.636719 286.046875 134 286.125 C 140.351562 287.519531 146.316406 290.628906 150.667969 295.535156 C 154.824219 300.230469 157.339844 306.445312 157.230469 312.746094 C 157 320.03125 153.277344 326.746094 147.773438 331.40625 Z M 147.773438 331.40625 " fill-opacity="1" fill-rule="nonzero"/></g><path fill="rgb(100%, 100%, 100%)" d="M 878.445312 1285.324219 C 878.113281 1298.984375 867.4375 1311.140625 854.433594 1315.335938 C 843.464844 1318.882812 831.371094 1317.371094 820.773438 1312.671875 C 819.109375 1316.449219 815.875 1319.5625 811.902344 1320.726562 C 806.742188 1322.238281 800.84375 1320.320312 797.285156 1316.328125 C 792.582031 1321.34375 786.558594 1325.199219 780.175781 1327.820312 C 770.5 1331.796875 759.976562 1333.203125 749.542969 1333.972656 C 739.773438 1334.683594 729.675781 1334.8125 720.515625 1331.347656 C 713.316406 1328.621094 706.769531 1323.21875 703.707031 1316.316406 C 699.824219 1320.867188 693.195312 1323.125 687.40625 1321.394531 C 681.820312 1319.722656 677.617188 1314.503906 676.644531 1308.796875 C 673.699219 1311.058594 670.558594 1313.054688 667.1875 1314.621094 C 659.679688 1318.128906 650.855469 1319.378906 643.027344 1316.667969 C 635.199219 1313.953125 628.710938 1306.820312 628.070312 1298.554688 C 627.539062 1291.597656 630.996094 1284.925781 635.285156 1279.429688 C 643.15625 1269.371094 654.230469 1261.875 666.460938 1258.226562 C 663.328125 1256.921875 660.574219 1254.550781 658.875 1251.597656 C 655.761719 1246.1875 655.882812 1239.304688 658.269531 1233.539062 C 660.652344 1227.769531 665.074219 1223.039062 670.09375 1219.324219 C 682.777344 1209.941406 699.816406 1206.800781 715.050781 1210.824219 C 714.527344 1206.171875 715.464844 1201.3125 717.546875 1197.09375 C 720.6875 1190.722656 726.207031 1185.738281 732.425781 1182.3125 C 747.277344 1174.132812 766.644531 1174.929688 780.777344 1184.296875 C 792.78125 1192.253906 800.5625 1206.113281 801.566406 1220.449219 C 805.789062 1219.378906 810.429688 1219.886719 814.242188 1222.015625 C 819.609375 1225.027344 823.058594 1231.132812 822.96875 1237.273438 C 828.40625 1232.195312 837.585938 1231.578125 843.582031 1236.039062 C 848.46875 1239.679688 850.730469 1246.292969 849.617188 1252.230469 C 856.179688 1253.636719 862.40625 1256.566406 867.421875 1261.007812 C 874.289062 1267.109375 878.675781 1276.144531 878.445312 1285.324219 Z M 878.445312 1285.324219 " fill-opacity="1" fill-rule="nonzero"/><g clip-path="url(#id2)"><path fill="rgb(100%, 100%, 100%)" d="M 871.46875 1263.417969 C 866.175781 1257.300781 858.78125 1253.34375 850.972656 1251.464844 C 851.878906 1244.496094 848.609375 1237.097656 842.199219 1233.863281 C 836.539062 1231.003906 829.339844 1231.550781 824.085938 1235.070312 C 823.554688 1230.488281 821.355469 1226.167969 817.8125 1223.136719 C 813.652344 1219.566406 808.042969 1218.308594 802.710938 1219.199219 C 801.132812 1202.648438 790.855469 1187.199219 775.660156 1180.164062 C 760.0625 1172.9375 740.488281 1174.40625 726.632812 1184.8125 C 718.816406 1190.683594 713.335938 1199.523438 713.699219 1209.425781 C 701.738281 1206.757812 688.929688 1208.195312 677.863281 1213.476562 C 666.726562 1218.792969 655.246094 1228.976562 655.257812 1242.296875 C 655.261719 1248.773438 658.226562 1254.78125 663.707031 1258.070312 C 656.90625 1260.421875 650.515625 1263.863281 644.855469 1268.328125 C 638.53125 1273.308594 632.628906 1279.636719 629.214844 1287 C 625.855469 1294.238281 625.90625 1302.371094 630.714844 1308.945312 C 635.277344 1315.183594 642.476562 1318.644531 650.113281 1319.109375 C 659.429688 1319.675781 668.320312 1316.042969 675.808594 1310.730469 C 677.394531 1316.257812 681.683594 1320.972656 687.320312 1322.484375 C 692.941406 1323.996094 699.046875 1322.140625 703.296875 1318.285156 C 705.980469 1323.296875 710.304688 1327.3125 715.234375 1330.097656 C 721.28125 1333.511719 728.269531 1334.890625 735.136719 1335.28125 C 742.601562 1335.703125 750.171875 1335.097656 757.589844 1334.238281 C 764.875 1333.390625 772.121094 1331.96875 778.996094 1329.378906 C 785.769531 1326.828125 792.0625 1323.027344 797.226562 1317.945312 C 800.699219 1321.175781 805.566406 1322.757812 810.289062 1322.101562 C 815.054688 1321.4375 819.066406 1318.25 821.355469 1314.109375 C 831.421875 1318.25 842.796875 1319.742188 853.375 1316.710938 C 862.394531 1314.132812 870.3125 1308.203125 875.195312 1300.179688 C 877.914062 1295.699219 879.539062 1290.578125 879.703125 1285.332031 C 879.839844 1277.253906 876.730469 1269.496094 871.46875 1263.417969 Z M 865.792969 1307.808594 C 858.351562 1314.105469 848.792969 1316.757812 839.132812 1316.191406 C 833.046875 1315.835938 827.070312 1314.230469 821.5 1311.789062 C 820.84375 1311.5 819.921875 1311.695312 819.597656 1312.398438 C 817.796875 1316.359375 814.28125 1319.535156 809.867188 1320.121094 C 805.523438 1320.699219 801.160156 1318.777344 798.253906 1315.597656 C 797.726562 1315.023438 796.714844 1315.339844 796.269531 1315.8125 C 786.765625 1325.832031 773.257812 1330.082031 759.921875 1331.910156 C 753.039062 1332.851562 746.023438 1333.417969 739.074219 1333.351562 C 732.171875 1333.285156 725.054688 1332.398438 718.761719 1329.398438 C 712.78125 1326.550781 707.613281 1321.890625 704.851562 1315.800781 C 704.476562 1314.972656 703.15625 1315.273438 702.691406 1315.804688 C 699.078125 1319.929688 693.195312 1322.011719 687.851562 1320.40625 C 682.570312 1318.820312 678.84375 1313.828125 677.882812 1308.535156 C 677.71875 1307.625 676.421875 1307.632812 675.839844 1308.074219 C 669.339844 1313.027344 661.691406 1316.769531 653.402344 1317.085938 C 646.078125 1317.371094 638.929688 1314.824219 634.050781 1309.238281 C 629.082031 1303.550781 628.136719 1296.066406 630.890625 1289.109375 C 633.679688 1282.082031 639.042969 1276.003906 644.753906 1271.167969 C 651.148438 1265.75 658.640625 1261.648438 666.671875 1259.222656 C 667.441406 1258.992188 668.296875 1257.828125 667.1875 1257.34375 C 661.457031 1254.867188 658.109375 1249.414062 657.78125 1243.257812 C 657.453125 1237.132812 659.976562 1231.296875 663.828125 1226.648438 C 671.40625 1217.492188 683.203125 1212.089844 694.828125 1210.566406 C 701.429688 1209.699219 708.175781 1210.140625 714.617188 1211.816406 C 715.421875 1212.023438 716.386719 1211.445312 716.296875 1210.566406 C 714.417969 1192.3125 732.789062 1180.15625 748.835938 1178.082031 C 765.085938 1175.976562 781.585938 1182.722656 791.265625 1196.015625 C 796.515625 1203.230469 799.675781 1211.820312 800.335938 1220.71875 C 800.382812 1221.347656 801.304688 1221.558594 801.785156 1221.445312 C 806.847656 1220.230469 812.257812 1221.3125 816.179688 1224.832031 C 819.667969 1227.964844 821.738281 1232.578125 821.722656 1237.273438 C 821.71875 1238.277344 823.085938 1238.636719 823.777344 1238.007812 C 828.398438 1233.796875 835.527344 1232.828125 841.066406 1235.796875 C 846.863281 1238.910156 849.480469 1245.933594 848.371094 1252.222656 C 848.285156 1252.714844 848.742188 1253.125 849.175781 1253.222656 C 856.84375 1254.902344 864.039062 1258.652344 869.285156 1264.566406 C 874.296875 1270.226562 877.332031 1277.71875 877.203125 1285.316406 C 876.925781 1294.097656 872.429688 1302.191406 865.792969 1307.808594 Z M 865.792969 1307.808594 " fill-opacity="1" fill-rule="nonzero"/></g><g clip-path="url(#id3)"><path fill="rgb(54.899597%, 80.389404%, 69.018555%)" d="M 281.898438 1366.929688 C 279.632812 1366.929688 277.367188 1366.929688 275.105469 1366.929688 C 269.6875 1365.582031 264.046875 1364.804688 258.910156 1362.757812 C 251.164062 1359.675781 245.082031 1354.207031 240.828125 1346.667969 C 231.464844 1350.582031 222 1351.953125 212.160156 1350.144531 C 195.65625 1347.109375 183.480469 1336.445312 180.378906 1321.960938 C 178.855469 1314.855469 180.148438 1307.992188 183.269531 1301.527344 C 167.089844 1292.464844 164.5625 1289.371094 159.613281 1272.679688 C 159.613281 1270.414062 159.613281 1268.148438 159.613281 1265.886719 C 159.808594 1265.699219 160.140625 1265.535156 160.179688 1265.324219 C 162.960938 1249.5625 173.269531 1240.890625 187.839844 1236.75 C 193.308594 1235.195312 199.171875 1235.035156 204.835938 1234.242188 C 208.976562 1218.355469 219.851562 1209.4375 235.5625 1206.0625 C 251.214844 1202.703125 265.191406 1206.445312 277.125 1217.261719 C 286.8125 1210.191406 297.449219 1207.007812 309.136719 1208.03125 C 324.292969 1209.363281 336.652344 1215.621094 343.394531 1229.914062 C 345.546875 1234.480469 346.015625 1239.839844 347.308594 1245.03125 C 362.886719 1247.558594 372.0625 1252.648438 378.742188 1263.730469 C 381.136719 1267.703125 382.152344 1272.503906 383.796875 1276.921875 C 383.796875 1278.90625 383.796875 1280.886719 383.796875 1282.867188 C 382.179688 1291.84375 378.105469 1299.480469 371.109375 1305.238281 C 383.160156 1325.296875 372.691406 1345.4375 355.148438 1353.371094 C 341.628906 1359.484375 328.089844 1359.316406 314.738281 1352.867188 C 312.425781 1351.75 311.148438 1352.117188 309.292969 1353.75 C 305.945312 1356.691406 302.511719 1359.871094 298.539062 1361.679688 C 293.28125 1364.070312 287.46875 1365.238281 281.898438 1366.929688 Z M 281.898438 1366.929688 " fill-opacity="1" fill-rule="nonzero"/></g><g clip-path="url(#id4)"><path fill="rgb(100%, 100%, 100%)" d="M -70.21875 1142.859375 C -69.503906 1140.496094 -68.78125 1138.136719 -68.058594 1135.78125 C -67.488281 1135.945312 -66.914062 1136.074219 -66.328125 1136.164062 C -64.171875 1136.394531 -63.183594 1135.078125 -63.957031 1132.945312 C -64.203125 1132.265625 -64.933594 1132.035156 -65.335938 1132.519531 C -66.253906 1133.613281 -67.011719 1134.839844 -67.835938 1136.011719 C -68.4375 1135.535156 -68.921875 1134.953125 -69.28125 1134.277344 C -69.644531 1133.597656 -69.859375 1132.875 -69.925781 1132.109375 C -70.234375 1129.625 -69.851562 1127.25 -68.78125 1124.984375 C -67.953125 1123.015625 -66.976562 1121.125 -65.855469 1119.304688 C -62.523438 1114.417969 -61.882812 1108.519531 -59.59375 1103.25 C -58.746094 1101.304688 -59.925781 1098.996094 -58.71875 1097.003906 C -58.609375 1096.816406 -58.46875 1096.652344 -58.296875 1096.519531 C -58.128906 1096.382812 -57.9375 1096.285156 -57.726562 1096.222656 C -57.519531 1096.160156 -57.304688 1096.140625 -57.089844 1096.160156 C -56.871094 1096.179688 -56.664062 1096.238281 -56.46875 1096.339844 C -55.914062 1096.5625 -55.394531 1097.035156 -54.839844 1097.0625 C -54.339844 1097.089844 -53.472656 1096.769531 -53.351562 1096.414062 C -52.390625 1093.539062 -51.503906 1090.636719 -50.722656 1087.707031 C -50.257812 1085.964844 -48.914062 1085.40625 -47.488281 1084.847656 L -47.695312 1084.820312 C -47.070312 1085.804688 -47.074219 1087.164062 -45.582031 1088.003906 C -44.617188 1087.449219 -43.609375 1086.996094 -42.558594 1086.640625 C -38.890625 1085.730469 -37.792969 1083.285156 -38.113281 1079.816406 C -38.214844 1078.921875 -38.164062 1078.035156 -37.96875 1077.15625 C -37.75 1076.570312 -37.375 1076.113281 -36.847656 1075.78125 C -33.902344 1075.273438 -30.941406 1075.046875 -27.957031 1075.101562 C -27.414062 1075.398438 -27.046875 1075.839844 -26.855469 1076.425781 C -26.722656 1077.28125 -27.042969 1078.199219 -26.960938 1079.074219 C -26.894531 1079.644531 -26.617188 1080.082031 -26.125 1080.382812 C -25.398438 1080.640625 -24.652344 1080.742188 -23.882812 1080.683594 C -23.117188 1080.625 -22.390625 1080.414062 -21.714844 1080.050781 C -21.335938 1079.78125 -21.074219 1079.425781 -20.925781 1078.988281 C -20.78125 1078.550781 -20.773438 1078.109375 -20.910156 1077.667969 C -21.449219 1076.613281 -22.121094 1075.621094 -22.554688 1074.535156 C -22.632812 1074.332031 -21.792969 1073.425781 -21.472656 1073.476562 C -20.582031 1073.59375 -19.769531 1073.914062 -19.042969 1074.445312 C -17.816406 1075.386719 -16.453125 1076.042969 -14.953125 1076.414062 C -13.453125 1076.789062 -11.945312 1076.847656 -10.417969 1076.59375 C -11.019531 1077.300781 -11.621094 1078.007812 -12.207031 1078.738281 C -12.195312 1078.765625 -11.792969 1079.230469 -11.792969 1079.230469 L -12.164062 1078.539062 L -10.398438 1076.660156 C -10.316406 1075.9375 -9.871094 1075.617188 -9.15625 1075.925781 C -7.226562 1076.738281 -5.457031 1078.027344 -3.136719 1077.074219 C -0.46875 1075.984375 1.570312 1077.144531 3.230469 1079.21875 C 3.566406 1079.726562 3.925781 1080.214844 4.308594 1080.683594 C 4.828125 1081.011719 5.394531 1081.175781 6.003906 1081.183594 C 6.617188 1081.1875 7.1875 1081.03125 7.710938 1080.714844 C 9.394531 1079.734375 10.09375 1078.007812 11.09375 1076.503906 L 10.886719 1076.738281 C 12.527344 1078.175781 11.828125 1079.789062 11.339844 1081.445312 C 11.25 1081.757812 11.835938 1082.570312 12.222656 1082.664062 C 12.929688 1082.824219 13.636719 1082.828125 14.34375 1082.675781 C 15.050781 1082.523438 15.691406 1082.226562 16.265625 1081.789062 C 16.6875 1082.886719 17.113281 1083.964844 17.527344 1085.027344 C 17.601562 1084.878906 17.6875 1084.738281 17.78125 1084.601562 L 17.246094 1084.839844 C 16.898438 1083.875 16.546875 1082.914062 16.195312 1081.949219 C 16.578125 1081.472656 16.871094 1080.726562 17.363281 1080.558594 C 20.847656 1079.371094 23.011719 1077.265625 23.207031 1073.351562 C 23.402344 1072.121094 23.835938 1070.976562 24.507812 1069.925781 C 24.816406 1069.375 25.28125 1069.058594 25.90625 1068.972656 C 26.339844 1069.011719 26.757812 1069.707031 27.09375 1070.183594 C 27.429688 1070.65625 27.574219 1071.382812 28.011719 1071.722656 C 28.527344 1071.992188 29.074219 1072.09375 29.652344 1072.03125 C 29.886719 1072.03125 30.332031 1071.664062 30.320312 1071.488281 C 30.125 1068.457031 31.882812 1065.570312 30.859375 1062.453125 C 30.71875 1061.917969 30.679688 1061.378906 30.738281 1060.832031 C 30.796875 1060.285156 30.953125 1059.769531 31.207031 1059.28125 C 31.460938 1058.789062 31.792969 1058.363281 32.203125 1058 C 32.617188 1057.632812 33.082031 1057.355469 33.597656 1057.164062 C 36.296875 1055.855469 39.175781 1054.832031 41.914062 1053.519531 C 43.519531 1054.539062 44.613281 1054.507812 44.59375 1052.210938 C 44.621094 1051.597656 44.609375 1050.984375 44.558594 1050.371094 C 44.265625 1048.210938 45.050781 1047.21875 47.585938 1046.546875 C 47.878906 1046.453125 48.183594 1046.402344 48.492188 1046.386719 C 48.757812 1046.421875 49.027344 1046.433594 49.296875 1046.417969 C 49.566406 1046.398438 49.832031 1046.355469 50.09375 1046.285156 C 50.355469 1046.21875 50.605469 1046.121094 50.847656 1046.003906 C 51.089844 1045.882812 51.320312 1045.738281 51.53125 1045.574219 C 51.746094 1045.410156 51.941406 1045.222656 52.117188 1045.019531 C 52.296875 1044.816406 52.449219 1044.597656 52.582031 1044.359375 C 52.714844 1044.125 52.824219 1043.878906 52.910156 1043.621094 C 52.992188 1043.367188 53.050781 1043.101562 53.082031 1042.835938 C 53.195312 1042.210938 53.472656 1041.675781 53.921875 1041.222656 C 54.367188 1040.773438 54.902344 1040.492188 55.527344 1040.375 C 57.023438 1040.050781 58.511719 1039.667969 60.019531 1039.394531 C 63.625 1038.738281 67.398438 1038.589844 70.804688 1037.382812 C 74.402344 1036.109375 78.078125 1036.90625 81.6875 1035.902344 C 83.804688 1035.4375 85.941406 1035.273438 88.105469 1035.414062 C 90.265625 1035.550781 92.363281 1035.984375 94.402344 1036.714844 C 97.933594 1037.871094 101.550781 1038.492188 105.261719 1038.589844 C 108.398438 1038.726562 111.328125 1039.582031 114.046875 1041.144531 C 118.175781 1043.246094 122.019531 1045.773438 125.585938 1048.730469 C 126.558594 1049.46875 127.628906 1050.019531 128.800781 1050.378906 C 129.085938 1050.507812 129.382812 1050.585938 129.695312 1050.613281 C 130.003906 1050.644531 130.3125 1050.621094 130.617188 1050.546875 C 130.921875 1050.46875 131.203125 1050.347656 131.464844 1050.179688 C 131.730469 1050.007812 131.957031 1049.800781 132.148438 1049.554688 C 133.769531 1047.328125 135.253906 1045.003906 136.78125 1042.710938 C 137.121094 1042.199219 137.402344 1041.652344 137.691406 1041.105469 C 138.953125 1038.71875 140.878906 1038.578125 143.160156 1039.414062 C 144.730469 1039.992188 146.296875 1038.574219 146.902344 1037.414062 C 147.242188 1036.886719 147.414062 1036.308594 147.417969 1035.679688 C 147.203125 1034.476562 146.902344 1033.296875 146.515625 1032.136719 C 146.398438 1031.691406 146.339844 1031.234375 146.347656 1030.773438 C 146.351562 1030.3125 146.417969 1029.859375 146.546875 1029.414062 C 146.675781 1028.96875 146.859375 1028.550781 147.101562 1028.15625 C 147.347656 1027.765625 147.636719 1027.410156 147.976562 1027.097656 C 148.148438 1026.839844 148.355469 1026.617188 148.597656 1026.429688 C 148.839844 1026.242188 149.109375 1026.097656 149.398438 1025.996094 C 149.6875 1025.898438 149.988281 1025.84375 150.296875 1025.839844 C 150.601562 1025.835938 150.902344 1025.882812 151.195312 1025.976562 C 152.703125 1026.535156 152.535156 1027.757812 152.050781 1029.003906 C 151.785156 1029.679688 152.082031 1030.140625 152.804688 1030.21875 C 153.117188 1030.25 153.410156 1030.183594 153.675781 1030.019531 C 154.222656 1029.738281 154.679688 1029.347656 155.039062 1028.851562 C 155.476562 1028.042969 155.738281 1027.183594 155.824219 1026.269531 C 155.777344 1025.003906 156.140625 1023.867188 156.902344 1022.855469 C 159.851562 1019.730469 163.144531 1017.015625 166.777344 1014.722656 C 170.414062 1012.429688 174.277344 1010.625 178.371094 1009.308594 C 179.246094 1008.988281 180.144531 1008.894531 181.066406 1009.035156 C 184.171875 1009.867188 187.179688 1009.046875 190.222656 1008.761719 C 192.988281 1008.261719 195.738281 1008.324219 198.476562 1008.949219 C 200.09375 1009.5 201.753906 1009.71875 203.457031 1009.617188 C 205.160156 1009.511719 206.78125 1009.089844 208.320312 1008.347656 C 208.886719 1008.097656 209.480469 1007.984375 210.101562 1008.007812 C 210.722656 1008.03125 211.304688 1008.191406 211.851562 1008.484375 C 212.878906 1009.152344 213.996094 1009.558594 215.210938 1009.707031 C 219.339844 1009.363281 223.054688 1010.976562 226.929688 1011.816406 C 228.414062 1012.136719 229.988281 1013.164062 231.3125 1012.882812 C 234.988281 1012.109375 236.992188 1014.605469 239.378906 1016.390625 C 241.121094 1015.617188 242.636719 1015.039062 244.539062 1016.332031 C 246.894531 1017.75 249.328125 1019.015625 251.84375 1020.128906 C 252.121094 1020.265625 252.398438 1020.519531 252.671875 1020.519531 C 260.109375 1020.519531 264.605469 1026.257812 270.324219 1029.574219 C 271.433594 1030.175781 272.339844 1030.996094 273.039062 1032.046875 C 273.738281 1033.09375 274.152344 1034.246094 274.277344 1035.5 C 274.445312 1036.898438 274.898438 1038.195312 275.636719 1039.390625 C 276.375 1040.589844 277.328125 1041.578125 278.5 1042.355469 C 280.449219 1043.921875 281.960938 1045.832031 283.03125 1048.089844 C 283.945312 1050.039062 284.972656 1051.921875 286.121094 1053.742188 C 287.765625 1056.371094 288.964844 1059.1875 289.714844 1062.191406 C 290.253906 1063.917969 289.964844 1065.917969 290.582031 1067.597656 C 291.433594 1069.199219 292.378906 1070.742188 293.425781 1072.222656 C 293.96875 1073.335938 294.339844 1074.5 294.546875 1075.71875 C 294.96875 1077.824219 295.011719 1080.03125 295.640625 1082.066406 C 296.628906 1085.273438 297.96875 1088.375 299.128906 1091.441406 C 301.628906 1091.882812 303.472656 1090.558594 305.324219 1089.625 C 309.625 1087.5 314.140625 1086.039062 318.867188 1085.234375 C 323.597656 1084.433594 328.34375 1084.324219 333.101562 1084.910156 C 338.867188 1085.488281 344.59375 1086.527344 350.425781 1086.40625 C 351.671875 1086.273438 352.878906 1086.4375 354.046875 1086.890625 C 358.398438 1089.191406 363.382812 1089.980469 367.546875 1092.675781 C 370.125 1094.34375 372.808594 1095.859375 374.148438 1098.902344 C 374.613281 1099.710938 375.28125 1100.289062 376.148438 1100.632812 C 377.601562 1101.21875 378.808594 1102.132812 379.773438 1103.367188 C 381.109375 1105.066406 382.683594 1106.503906 384.496094 1107.683594 C 387.28125 1109.613281 389.726562 1111.90625 391.828125 1114.566406 C 393.929688 1117.226562 395.59375 1120.132812 396.824219 1123.292969 C 399.011719 1128.117188 400.007812 1133.179688 399.820312 1138.472656 C 399.617188 1141.824219 400 1145.191406 399.660156 1148.589844 C 399.335938 1154.183594 397.925781 1159.488281 395.425781 1164.503906 C 394.425781 1166.425781 393.671875 1168.4375 393.171875 1170.542969 C 392.414062 1173.933594 390.816406 1176.867188 388.378906 1179.34375 C 383.527344 1184.0625 379.710938 1189.675781 375.011719 1194.515625 C 374.625 1194.992188 374.207031 1195.441406 373.761719 1195.871094 C 372.527344 1196.867188 370.941406 1197.796875 369.546875 1197.035156 C 366.921875 1195.601562 364.757812 1196.664062 362.648438 1197.8125 C 360.785156 1198.96875 358.996094 1200.234375 357.289062 1201.609375 C 353.367188 1201.539062 349.375 1201.542969 345.394531 1201.351562 C 344.175781 1201.175781 343.007812 1200.839844 341.878906 1200.347656 C 340.179688 1199.644531 338.4375 1199.058594 336.65625 1198.589844 C 335.417969 1198.324219 334.261719 1198.527344 333.1875 1199.199219 C 329.726562 1202.179688 325.894531 1204.871094 324.117188 1209.402344 C 323.917969 1210.171875 323.53125 1210.832031 322.960938 1211.382812 C 322.390625 1211.9375 321.71875 1212.304688 320.949219 1212.484375 C 320.414062 1212.542969 319.894531 1212.671875 319.394531 1212.867188 C 318.894531 1213.066406 318.429688 1213.324219 318 1213.644531 C 317.566406 1213.96875 317.1875 1214.339844 316.855469 1214.765625 C 316.523438 1215.1875 316.253906 1215.648438 316.042969 1216.140625 C 315.628906 1216.964844 315.152344 1217.761719 314.792969 1218.605469 C 314.410156 1219.621094 313.859375 1220.53125 313.136719 1221.339844 C 312.414062 1222.144531 311.570312 1222.796875 310.605469 1223.285156 C 309.328125 1224.136719 308.191406 1225.152344 307.203125 1226.324219 C 306.949219 1226.621094 306.648438 1226.851562 306.296875 1227.015625 C 305.949219 1227.183594 305.582031 1227.269531 305.191406 1227.277344 C 304.804688 1227.289062 304.433594 1227.21875 304.074219 1227.066406 C 303.71875 1226.917969 303.40625 1226.703125 303.140625 1226.417969 C 302.378906 1225.875 301.53125 1225.582031 300.597656 1225.539062 C 298.773438 1225.425781 296.957031 1225.484375 295.144531 1225.703125 C 294.226562 1225.855469 293.488281 1226.296875 292.925781 1227.035156 C 292.113281 1228.339844 291.441406 1229.710938 290.910156 1231.152344 C 290.320312 1232.570312 289.960938 1234.078125 289.375 1235.492188 C 289.164062 1236.078125 288.871094 1236.617188 288.492188 1237.109375 C 288.113281 1237.601562 287.671875 1238.027344 287.160156 1238.382812 C 286.648438 1238.734375 286.097656 1239.003906 285.503906 1239.1875 C 284.910156 1239.371094 284.300781 1239.460938 283.679688 1239.453125 C 272.574219 1239.941406 261.601562 1238.933594 250.769531 1236.4375 C 247.515625 1235.640625 244.738281 1233.710938 241.253906 1233.234375 C 238.019531 1232.792969 234.9375 1230.96875 231.855469 1229.605469 C 230.796875 1228.988281 229.800781 1228.28125 228.875 1227.480469 C 228.140625 1226.96875 227.265625 1225.992188 226.609375 1226.105469 C 222.546875 1226.820312 220.777344 1223.285156 217.824219 1221.789062 C 215.433594 1220.578125 212.566406 1222.222656 209.875 1222.496094 C 209.519531 1222.53125 209.011719 1223.453125 209 1223.964844 C 208.945312 1224.882812 209.117188 1225.753906 209.519531 1226.578125 C 210.421875 1227.886719 210.820312 1229.335938 210.71875 1230.921875 C 210.550781 1232.101562 210.421875 1233.71875 209.640625 1234.304688 C 206.46875 1236.695312 204.492188 1240.324219 200.988281 1242.375 C 200.128906 1242.878906 199.773438 1244.417969 199.40625 1245.550781 C 198.890625 1247.136719 199.984375 1247.789062 202.105469 1247.222656 C 202.195312 1247.480469 202.425781 1247.792969 202.351562 1247.988281 C 201.542969 1250.625 200.546875 1253.191406 199.359375 1255.679688 C 196.859375 1260.257812 194.171875 1264.722656 189.332031 1267.433594 C 187.019531 1268.949219 184.785156 1270.578125 182.636719 1272.316406 C 180.550781 1273.78125 179.054688 1273.53125 176.972656 1271.582031 C 176.351562 1270.992188 175.71875 1270.425781 175.03125 1269.796875 C 174.078125 1270.652344 173.074219 1271.445312 172.019531 1272.175781 C 171.269531 1272.632812 170.152344 1273.230469 169.492188 1272.980469 C 165.179688 1271.363281 160.996094 1272.742188 156.769531 1273.226562 C 156.15625 1273.394531 155.542969 1273.382812 154.9375 1273.191406 C 154.328125 1273 153.820312 1272.65625 153.414062 1272.167969 C 153.113281 1271.546875 152.714844 1271 152.222656 1270.519531 C 151.726562 1270.039062 151.167969 1269.65625 150.539062 1269.375 C 149.910156 1269.089844 149.253906 1268.921875 148.566406 1268.867188 C 147.878906 1268.816406 147.203125 1268.882812 146.539062 1269.066406 C 144.25 1269.480469 141.695312 1268.597656 139.28125 1268.167969 C 135.351562 1267.46875 135.105469 1267.136719 134.59375 1262.726562 C 134.5625 1262.113281 134.5 1261.503906 134.402344 1260.898438 C 134.300781 1260.28125 134.035156 1259.742188 133.613281 1259.277344 C 133.191406 1258.816406 132.675781 1258.507812 132.066406 1258.351562 C 131.214844 1257.984375 130.324219 1257.785156 129.394531 1257.75 C 128.46875 1257.714844 127.566406 1257.851562 126.6875 1258.152344 C 125.296875 1258.761719 123.855469 1259.261719 122.234375 1259.890625 C 121.214844 1258.4375 120.285156 1256.945312 119.175781 1255.589844 C 118.007812 1254.167969 116.492188 1253.007812 115.441406 1251.511719 C 114.265625 1249.835938 112.207031 1249.949219 110.820312 1248.71875 C 108.332031 1246.496094 105.457031 1244.699219 104.144531 1241.363281 C 103.574219 1240.269531 102.871094 1239.265625 102.035156 1238.351562 C 100.019531 1235.660156 96.9375 1235.621094 95.164062 1238.300781 C 94.144531 1239.839844 93.25 1241.464844 92.296875 1243.035156 C 91.578125 1244.214844 91.210938 1244.351562 89.234375 1243.273438 C 88.09375 1242.648438 86.972656 1242.027344 85.90625 1242.964844 C 84.96875 1243.757812 84.273438 1244.726562 83.824219 1245.871094 C 83.507812 1247.066406 83.433594 1248.277344 83.597656 1249.503906 C 83.664062 1249.804688 83.683594 1250.105469 83.65625 1250.410156 C 83.625 1250.714844 83.546875 1251.007812 83.425781 1251.289062 C 83.300781 1251.570312 83.136719 1251.824219 82.929688 1252.050781 C 82.722656 1252.277344 82.488281 1252.46875 82.222656 1252.621094 C 81.832031 1252.867188 81.414062 1253.039062 80.964844 1253.140625 C 80.515625 1253.246094 80.0625 1253.269531 79.601562 1253.21875 C 79.144531 1253.164062 78.710938 1253.039062 78.292969 1252.839844 C 77.878906 1252.636719 77.511719 1252.375 77.183594 1252.046875 C 76.351562 1251.210938 75.90625 1249.894531 74.3125 1249.980469 C 72.609375 1252.414062 70.910156 1254.933594 69.113281 1257.375 C 68.757812 1257.890625 68.296875 1258.285156 67.726562 1258.554688 C 67.160156 1258.824219 66.5625 1258.929688 65.9375 1258.878906 C 64.71875 1258.691406 63.507812 1258.738281 62.304688 1259.027344 C 60.253906 1259.761719 58.304688 1260.574219 56.128906 1259.613281 C 51.488281 1261.425781 46.417969 1260.191406 41.738281 1261.632812 C 39.277344 1262.390625 37.03125 1262.765625 34.8125 1260.917969 C 33.753906 1260.035156 32.335938 1261.386719 31.335938 1261.085938 C 26.269531 1259.554688 21.011719 1259.738281 15.851562 1259.109375 C 14.769531 1259.058594 13.746094 1258.785156 12.78125 1258.285156 C 11.820312 1257.785156 11.003906 1257.109375 10.339844 1256.25 C 9.660156 1255.640625 8.875 1255.234375 7.984375 1255.039062 C 7.390625 1254.84375 6.898438 1254.503906 6.503906 1254.015625 C 6.113281 1253.527344 5.886719 1252.972656 5.820312 1252.351562 C 5.71875 1251.765625 5.605469 1250.976562 5.203125 1250.6875 C 0.761719 1247.5 -1.539062 1241.964844 -6.867188 1239.710938 C -7.222656 1239.429688 -7.488281 1239.082031 -7.667969 1238.667969 C -7.847656 1238.25 -7.917969 1237.816406 -7.878906 1237.367188 C -7.414062 1235.148438 -7.417969 1233.296875 -9.386719 1231.699219 C -9.976562 1231.226562 -9.953125 1230.011719 -10.207031 1229.132812 L -10.449219 1229.351562 C -8.738281 1227.351562 -7.492188 1224.992188 -5.335938 1223.132812 C -7.339844 1220.792969 -9.105469 1218.277344 -10.632812 1215.597656 C -12.09375 1213.007812 -14.726562 1211.101562 -16.660156 1208.742188 C -17.273438 1207.699219 -17.714844 1206.589844 -17.984375 1205.410156 C -18.738281 1203.429688 -19.492188 1201.449219 -20.257812 1199.433594 C -22.054688 1198.925781 -23.8125 1198.3125 -25.535156 1197.589844 C -26.882812 1196.933594 -27.984375 1195.785156 -29.285156 1195.007812 C -30.066406 1194.527344 -30.914062 1194.257812 -31.828125 1194.203125 C -35.460938 1194.128906 -38.625 1191.757812 -42.445312 1192.300781 C -43.75 1192.488281 -45.277344 1191.335938 -46.65625 1190.699219 C -47.183594 1190.453125 -47.863281 1190.003906 -47.980469 1189.519531 C -49.492188 1183.785156 -54.507812 1181 -58.191406 1177.074219 C -60.214844 1174.785156 -62.066406 1172.367188 -63.753906 1169.820312 C -64.304688 1169.054688 -64.550781 1168.199219 -64.488281 1167.257812 C -63.871094 1163.070312 -65.921875 1160.246094 -68.941406 1157.820312 C -69.144531 1157.589844 -69.304688 1157.328125 -69.425781 1157.042969 C -70.007812 1154.011719 -69.953125 1150.992188 -69.269531 1147.984375 C -69.050781 1147.078125 -69.019531 1146.164062 -69.171875 1145.246094 C -69.324219 1144.328125 -69.652344 1143.476562 -70.152344 1142.6875 Z M -57.113281 1162.847656 C -56.820312 1162.316406 -56.515625 1161.800781 -56.253906 1161.257812 C -56.113281 1160.984375 -56.042969 1160.699219 -56.042969 1160.394531 C -56.105469 1160.148438 -56.214844 1159.921875 -56.363281 1159.714844 C -56.648438 1160.105469 -56.859375 1160.527344 -56.996094 1160.988281 C -57.011719 1161.585938 -56.96875 1162.179688 -56.875 1162.773438 L -57.53125 1162.664062 Z M 382.050781 1113.386719 L 382.210938 1112.734375 L 381.902344 1113.175781 C 382.101562 1113.394531 382.320312 1113.589844 382.5625 1113.761719 C 382.894531 1113.953125 382.953125 1115.527344 383.679688 1114.019531 C 383.132812 1113.804688 382.585938 1113.605469 382.050781 1113.386719 Z M -49.285156 1181.292969 L -49.550781 1181.457031 C -49.347656 1179.984375 -49.292969 1178.503906 -49.386719 1177.019531 C -49.71875 1175.902344 -50.234375 1174.875 -50.933594 1173.941406 C -51.117188 1173.683594 -51.367188 1173.558594 -51.683594 1173.566406 C -51.835938 1173.585938 -51.976562 1173.640625 -52.105469 1173.730469 C -52.230469 1173.820312 -52.328125 1173.933594 -52.402344 1174.074219 C -52.472656 1174.210938 -52.507812 1174.359375 -52.507812 1174.511719 C -52.507812 1174.667969 -52.46875 1174.816406 -52.398438 1174.953125 C -51.414062 1177.097656 -50.347656 1179.199219 -49.285156 1181.292969 Z M 162.96875 1072.863281 C 160.09375 1072.976562 160.015625 1072.980469 159.628906 1074.753906 C 159.300781 1075.910156 159.160156 1077.089844 159.207031 1078.289062 C 159.417969 1079.179688 159.875 1079.914062 160.578125 1080.496094 C 160.753906 1080.640625 160.949219 1080.753906 161.160156 1080.832031 C 161.375 1080.90625 161.59375 1080.945312 161.824219 1080.945312 C 162.050781 1080.945312 162.269531 1080.90625 162.484375 1080.832031 C 162.695312 1080.753906 162.890625 1080.640625 163.066406 1080.496094 C 163.507812 1080.175781 164.066406 1079.515625 164.011719 1079.078125 C 163.75 1077 163.296875 1074.949219 162.9375 1072.890625 L 164.96875 1073.492188 L 165.015625 1073.332031 Z M 392.847656 1156.363281 C 392.179688 1156.925781 391.636719 1157.589844 391.222656 1158.359375 C 390.808594 1159.128906 390.554688 1159.949219 390.453125 1160.816406 C 390.226562 1161.664062 391.140625 1162.828125 391.863281 1162.558594 C 392.347656 1162.375 392.996094 1161.96875 393.097656 1161.550781 C 393.394531 1160.703125 393.519531 1159.832031 393.476562 1158.933594 C 393.433594 1158.039062 393.222656 1157.183594 392.847656 1156.367188 Z M -59.484375 1147.070312 C -59.777344 1146.28125 -60.121094 1145.511719 -60.511719 1144.765625 C -60.609375 1144.566406 -60.742188 1144.390625 -60.914062 1144.246094 C -61.085938 1144.101562 -61.28125 1144 -61.496094 1143.941406 C -61.714844 1143.878906 -61.933594 1143.867188 -62.15625 1143.902344 C -62.378906 1143.9375 -62.582031 1144.015625 -62.769531 1144.140625 C -63.039062 1144.265625 -63.277344 1144.441406 -63.472656 1144.664062 C -63.671875 1144.886719 -63.816406 1145.144531 -63.910156 1145.425781 C -64 1145.710938 -64.03125 1146.003906 -64.003906 1146.300781 C -63.972656 1146.597656 -63.882812 1146.878906 -63.734375 1147.136719 C -63.398438 1147.644531 -62.949219 1148.015625 -62.386719 1148.253906 C -61.824219 1148.488281 -61.246094 1148.550781 -60.648438 1148.4375 C -60.226562 1148.359375 -59.933594 1147.625 -59.484375 1147.070312 Z M -54.921875 1109.980469 C -55.386719 1110.652344 -55.765625 1111.371094 -56.066406 1112.132812 C -56.175781 1112.519531 -55.710938 1113.066406 -55.507812 1113.539062 C -55.082031 1113.246094 -54.386719 1113.007812 -54.28125 1112.617188 C -54.140625 1111.808594 -54.113281 1110.996094 -54.210938 1110.183594 C -54.210938 1110.117188 -54.597656 1110.074219 -54.921875 1109.980469 Z M 393.558594 1140.613281 C 393.296875 1140.148438 393.128906 1139.429688 392.75 1139.289062 C 392.175781 1139.160156 391.675781 1139.300781 391.253906 1139.710938 C 391.207031 1139.808594 391.167969 1139.90625 391.144531 1140.011719 C 391.121094 1140.113281 391.109375 1140.21875 391.113281 1140.324219 C 391.117188 1140.433594 391.132812 1140.535156 391.164062 1140.640625 C 391.195312 1140.742188 391.238281 1140.835938 391.292969 1140.929688 C 391.351562 1141.019531 391.417969 1141.101562 391.492188 1141.175781 C 391.570312 1141.25 391.65625 1141.3125 391.75 1141.363281 C 391.84375 1141.414062 391.941406 1141.453125 392.042969 1141.480469 C 392.148438 1141.503906 392.253906 1141.515625 392.359375 1141.515625 C 392.773438 1141.480469 393.152344 1140.933594 393.558594 1140.613281 Z M 166.535156 1020.859375 C 166.574219 1020.105469 166.203125 1019.71875 165.464844 1019.875 C 165.253906 1019.921875 165.042969 1020.316406 164.988281 1020.59375 C 164.929688 1020.886719 165 1021.152344 165.195312 1021.378906 C 165.796875 1021.8125 166.273438 1021.59375 166.535156 1020.859375 Z M 72.164062 1235.136719 L 71.699219 1234.425781 C 71.484375 1234.609375 71.144531 1234.757812 71.078125 1234.988281 C 70.839844 1235.78125 71.15625 1236.148438 71.835938 1235.890625 C 72.015625 1235.824219 72.054688 1235.398438 72.164062 1235.136719 Z M 87.394531 1219.90625 C 87.40625 1219.632812 87.542969 1219.242188 87.410156 1219.09375 C 86.9375 1218.566406 86.535156 1218.757812 86.453125 1219.570312 C 86.433594 1219.808594 86.664062 1220.070312 86.777344 1220.324219 Z M -21.4375 1192.808594 C -21.664062 1192.335938 -21.777344 1191.707031 -22.148438 1191.4375 C -22.699219 1191.042969 -23.191406 1191.402344 -23.25 1192.152344 C -23.273438 1192.398438 -23.105469 1192.859375 -22.976562 1192.871094 C -22.460938 1192.890625 -21.949219 1192.871094 -21.4375 1192.808594 Z M 389.101562 1125.085938 C 388.894531 1124.890625 388.699219 1124.5625 388.476562 1124.539062 C 388.25 1124.515625 387.769531 1124.855469 387.792969 1124.949219 C 387.933594 1125.457031 388.113281 1125.953125 388.332031 1126.433594 C 388.5625 1126.265625 388.875 1126.148438 389.003906 1125.925781 C 389.09375 1125.652344 389.125 1125.371094 389.101562 1125.085938 Z M 198.765625 1238.316406 L 199.183594 1237.710938 L 198.597656 1237.574219 Z M 242.546875 1037.394531 C 243.050781 1036.804688 242.957031 1036.449219 242.257812 1036.460938 C 242.15625 1036.460938 242 1036.886719 242 1037.113281 C 241.996094 1037.207031 242.347656 1037.300781 242.546875 1037.394531 Z M 242.546875 1037.394531 " fill-opacity="1" fill-rule="nonzero"/></g><g clip-path="url(#id5)"><path fill="rgb(54.899597%, 80.389404%, 69.018555%)" d="M 425.5625 301.746094 C 423.296875 301.746094 421.035156 301.746094 418.769531 301.746094 C 413.351562 300.402344 407.710938 299.621094 402.574219 297.578125 C 394.828125 294.492188 388.746094 289.023438 384.492188 281.484375 C 375.128906 285.398438 365.664062 286.769531 355.824219 284.960938 C 339.320312 281.929688 327.144531 271.261719 324.042969 256.777344 C 322.523438 249.671875 323.8125 242.808594 326.933594 236.34375 C 310.753906 227.285156 308.226562 224.1875 303.28125 207.496094 C 303.28125 205.230469 303.28125 202.96875 303.28125 200.703125 C 303.476562 200.515625 303.804688 200.355469 303.84375 200.140625 C 306.625 184.378906 316.933594 175.707031 331.507812 171.566406 C 336.972656 170.011719 342.839844 169.851562 348.503906 169.058594 C 352.640625 153.171875 363.515625 144.253906 379.230469 140.878906 C 394.878906 137.519531 408.855469 141.261719 420.789062 152.078125 C 430.480469 145.007812 441.117188 141.824219 452.804688 142.851562 C 467.957031 144.179688 480.320312 150.4375 487.058594 164.730469 C 489.210938 169.296875 489.683594 174.65625 490.972656 179.851562 C 506.550781 182.375 515.726562 187.464844 522.410156 198.550781 C 524.800781 202.519531 525.820312 207.320312 527.460938 211.742188 C 527.460938 213.722656 527.460938 215.703125 527.460938 217.683594 C 525.847656 226.660156 521.769531 234.296875 514.773438 240.054688 C 526.824219 260.113281 516.359375 280.253906 498.8125 288.1875 C 485.296875 294.300781 471.753906 294.136719 458.402344 287.6875 C 456.09375 286.566406 454.816406 286.933594 452.957031 288.570312 C 449.609375 291.507812 446.179688 294.6875 442.203125 296.496094 C 436.949219 298.886719 431.136719 300.054688 425.5625 301.746094 Z M 425.5625 301.746094 " fill-opacity="1" fill-rule="nonzero"/></g><g clip-path="url(#id6)"><path fill="rgb(100%, 100%, 100%)" d="M 550.820312 107.84375 C 551.332031 106.257812 552.0625 104.78125 553.015625 103.414062 C 554.183594 101.816406 555.089844 100.027344 556.144531 98.347656 C 556.617188 97.597656 558.03125 97.691406 558.679688 98.480469 C 558.78125 98.605469 558.824219 98.78125 558.929688 98.90625 C 559.058594 99.121094 559.222656 99.300781 559.417969 99.453125 C 559.613281 99.605469 559.828125 99.71875 560.066406 99.792969 C 560.304688 99.867188 560.546875 99.898438 560.792969 99.886719 C 561.042969 99.871094 561.277344 99.816406 561.507812 99.714844 C 561.902344 99.539062 562.195312 99.261719 562.394531 98.878906 C 562.589844 98.496094 562.644531 98.089844 562.554688 97.667969 C 562.5625 96.671875 562.445312 95.691406 562.203125 94.722656 C 562 94.082031 561.960938 93.429688 562.085938 92.769531 C 562.214844 92.105469 562.488281 91.515625 562.914062 90.992188 C 563.550781 90.023438 564.222656 89.074219 564.800781 88.070312 C 565.328125 87.019531 566.03125 86.113281 566.917969 85.34375 C 567.804688 84.574219 568.804688 84.003906 569.917969 83.632812 C 570.402344 83.476562 570.8125 83.199219 571.144531 82.808594 C 571.472656 82.421875 571.675781 81.972656 571.753906 81.46875 C 571.859375 80.8125 572.023438 80.175781 572.246094 79.550781 C 572.441406 79.085938 572.761719 78.730469 573.207031 78.488281 C 574.265625 78.027344 575.390625 77.714844 576.472656 77.355469 C 575.644531 78.8125 574.828125 80.242188 574.039062 81.691406 C 573.75 82.226562 574.066406 82.839844 574.796875 83.28125 C 574.9375 83.367188 575.078125 83.445312 575.230469 83.519531 C 575.367188 83.613281 575.515625 83.671875 575.675781 83.703125 C 575.839844 83.730469 576 83.726562 576.15625 83.683594 C 576.316406 83.644531 576.460938 83.574219 576.589844 83.472656 C 576.71875 83.367188 576.820312 83.242188 576.894531 83.097656 C 577.21875 82.164062 577.527344 81.222656 577.808594 80.273438 C 577.910156 79.949219 577.898438 79.628906 577.773438 79.3125 C 577.644531 78.996094 577.433594 78.753906 577.136719 78.589844 C 576.914062 78.472656 576.738281 78.304688 576.605469 78.09375 C 576.476562 77.878906 576.410156 77.644531 576.40625 77.394531 C 578.8125 75.921875 581.214844 74.441406 583.632812 72.984375 C 584.050781 72.707031 584.503906 72.515625 584.996094 72.414062 C 587.59375 72.042969 590.195312 71.175781 592.789062 72.535156 C 593.257812 72.78125 593.746094 72.382812 593.957031 71.910156 C 594.070312 71.597656 594.261719 71.34375 594.527344 71.144531 C 594.796875 70.945312 595.097656 70.835938 595.429688 70.816406 C 596.234375 70.722656 597.28125 70.671875 597.753906 70.164062 C 599.035156 68.800781 600.671875 68.609375 602.289062 68.394531 C 604.605469 68.074219 606.929688 67.988281 609.261719 68.132812 C 609.585938 68.546875 609.898438 68.921875 610.179688 69.316406 C 610.234375 69.429688 610.3125 69.527344 610.414062 69.601562 C 610.515625 69.679688 610.628906 69.726562 610.753906 69.75 C 610.878906 69.773438 611.003906 69.769531 611.125 69.734375 C 611.246094 69.703125 611.355469 69.640625 611.449219 69.558594 C 612.550781 68.261719 613.902344 68.132812 615.484375 68.207031 C 617.621094 68.300781 619.796875 68.445312 621.878906 67.640625 C 622.359375 67.488281 622.851562 67.4375 623.351562 67.480469 C 626.976562 67.609375 630.648438 67.300781 634.125 68.738281 C 636.257812 69.621094 638.664062 69.8125 640.566406 71.304688 C 640.859375 71.476562 641.175781 71.527344 641.507812 71.460938 C 642.347656 71.34375 643.167969 71.414062 643.976562 71.667969 C 644.78125 71.917969 645.496094 72.332031 646.117188 72.902344 C 647.304688 73.875 648.820312 74.171875 649.988281 74.996094 C 651.1875 75.863281 652.4375 76.652344 653.738281 77.363281 C 655.335938 78.25 656.878906 79.222656 658.363281 80.289062 C 659.148438 80.902344 660.003906 81.394531 660.929688 81.765625 C 661.574219 81.96875 662.128906 82.316406 662.589844 82.808594 C 663.730469 84.023438 664.988281 85.09375 666.367188 86.023438 C 666.964844 86.597656 667.503906 87.214844 667.988281 87.882812 C 668.417969 88.363281 668.804688 89.0625 669.351562 89.238281 C 672.203125 90.175781 673.234375 92.699219 674.449219 94.996094 C 675.199219 96.660156 675.863281 98.359375 676.441406 100.089844 C 676.660156 100.707031 676.964844 101.273438 677.367188 101.789062 C 677.996094 102.574219 678.472656 103.441406 678.800781 104.390625 C 679.128906 105.339844 679.285156 106.316406 679.277344 107.320312 C 679.359375 108.8125 679.289062 110.316406 679.417969 111.800781 C 679.492188 112.960938 679.699219 114.09375 680.050781 115.199219 C 680.933594 117.785156 680.773438 120.445312 680.792969 123.089844 C 680.722656 123.757812 680.480469 124.351562 680.066406 124.875 C 679.628906 125.375 679.160156 125.839844 678.664062 126.28125 C 677.742188 127.308594 677.769531 127.730469 678.992188 129.097656 C 679.230469 129.332031 679.398438 129.609375 679.488281 129.933594 C 679.582031 130.253906 679.585938 130.578125 679.507812 130.90625 C 679.136719 132.347656 678.636719 133.757812 678.289062 135.207031 C 678.167969 135.855469 678.152344 136.507812 678.25 137.160156 C 678.292969 137.507812 678.46875 137.773438 678.773438 137.953125 C 680.949219 138.71875 683.128906 139.910156 685.441406 139.699219 C 689.324219 139.347656 692.570312 140.9375 695.867188 142.460938 C 697.757812 143.496094 699.707031 144.410156 701.710938 145.195312 C 703.683594 145.816406 705.449219 146.429688 706.214844 148.65625 C 706.453125 149.34375 707.335938 149.820312 707.953125 150.359375 C 708.230469 150.546875 708.515625 150.714844 708.8125 150.859375 C 711.890625 152.824219 712.195312 153.277344 713.15625 157.074219 C 713.398438 158.035156 713.667969 158.988281 713.992188 159.925781 C 714.921875 162.792969 715.355469 165.734375 715.292969 168.75 C 715.375 170.472656 714.925781 172.039062 713.9375 173.453125 C 713.40625 174.117188 713.097656 174.871094 713.011719 175.71875 C 712.988281 176.546875 712.828125 177.351562 712.523438 178.125 C 712.273438 178.660156 711.550781 178.957031 711.128906 179.4375 C 710.9375 179.722656 710.871094 180.03125 710.921875 180.371094 C 710.953125 180.652344 711.160156 181.152344 711.316406 181.164062 C 713.964844 181.351562 716.621094 181.554688 719.273438 181.589844 C 722.917969 181.765625 726.542969 182.128906 730.148438 182.675781 C 731.644531 182.851562 733.074219 183.273438 734.429688 183.933594 C 735.785156 184.59375 736.996094 185.457031 738.058594 186.527344 C 739.851562 188.25 741.816406 189.792969 743.757812 191.347656 C 745.992188 193.136719 747.949219 195.09375 748.9375 197.875 C 749.21875 198.660156 749.640625 199.359375 750.210938 199.972656 C 751.085938 200.992188 751.738281 202.136719 752.171875 203.40625 C 752.429688 204.023438 752.5625 204.660156 752.582031 205.324219 C 752.625 208.792969 752.421875 212.265625 753.011719 215.710938 C 753.0625 216.214844 752.972656 216.699219 752.742188 217.152344 C 752.074219 218.695312 751.726562 220.308594 751.691406 221.988281 C 751.472656 224.667969 750.671875 227.160156 749.292969 229.464844 C 748.160156 231.488281 747.230469 233.605469 746.058594 235.621094 C 744.789062 237.875 743.21875 239.898438 741.359375 241.695312 C 739.496094 243.492188 737.414062 244.984375 735.117188 246.175781 C 732.765625 247.402344 730.511719 248.816406 727.859375 249.363281 C 726.726562 249.597656 725.621094 249.9375 724.496094 250.1875 C 723.84375 250.324219 723.1875 250.421875 722.523438 250.480469 C 719.542969 250.773438 717.601562 252.257812 716.917969 255.253906 C 716.699219 256.222656 716.40625 257.175781 716.144531 258.136719 C 715.433594 260.9375 714.054688 263.363281 712.007812 265.402344 C 710.949219 266.460938 710.078125 267.648438 709.390625 268.972656 C 708.71875 270.210938 707.355469 271.113281 706.195312 272.039062 C 705.261719 272.734375 704.277344 273.351562 703.246094 273.894531 C 702.535156 274.320312 701.914062 274.855469 701.382812 275.496094 C 699.699219 277.390625 697.6875 278.820312 695.339844 279.78125 C 694.375 280.09375 693.566406 280.640625 692.914062 281.417969 C 692.015625 282.460938 690.890625 283.125 689.539062 283.40625 C 687.320312 284.066406 685.125 284.855469 682.859375 285.304688 C 680.746094 285.726562 678.628906 286.078125 676.542969 286.675781 C 675.242188 286.984375 673.925781 287.09375 672.589844 287.003906 C 670.769531 286.957031 668.957031 286.722656 667.140625 286.566406 C 664.144531 286.324219 661.25 285.65625 658.449219 284.566406 C 656.285156 283.726562 654.023438 283.152344 651.832031 282.386719 C 648.960938 281.46875 646.304688 280.128906 643.863281 278.367188 C 642.675781 277.464844 641.339844 276.761719 640.117188 275.902344 C 637.273438 273.894531 634.382812 271.941406 631.652344 269.785156 C 629.785156 268.355469 628.257812 266.628906 627.066406 264.601562 C 625.703125 262.183594 624.007812 260.023438 621.980469 258.121094 C 620.445312 258.042969 619.65625 258.988281 618.742188 259.644531 C 617.929688 260.207031 617.175781 260.84375 616.484375 261.550781 C 615.570312 262.511719 614.816406 263.621094 613.890625 264.570312 C 613.421875 265.042969 612.863281 265.363281 612.21875 265.53125 C 611.386719 265.664062 610.667969 266.023438 610.058594 266.605469 C 607.980469 268.796875 605.511719 269.847656 602.433594 269.125 C 601.488281 268.902344 600.894531 269.46875 600.519531 270.3125 C 600.371094 270.621094 600.15625 270.867188 599.871094 271.058594 C 599.585938 271.246094 599.273438 271.347656 598.933594 271.363281 C 598.28125 271.4375 597.605469 271.289062 596.953125 271.351562 C 596.28125 271.335938 595.644531 271.476562 595.046875 271.777344 C 592.855469 273.3125 590.472656 273.257812 587.929688 273.214844 C 585.949219 273.183594 583.964844 273.085938 582 273.089844 C 578.4375 273.097656 575.183594 271.761719 571.75 271.28125 C 571.25 271.191406 570.800781 270.992188 570.394531 270.6875 C 569.71875 270.210938 568.96875 269.921875 568.144531 269.816406 C 565.976562 269.449219 564.058594 268.546875 562.386719 267.113281 C 561.109375 266.058594 559.742188 265.097656 558.515625 263.992188 C 557.421875 262.984375 556.386719 261.914062 555.417969 260.78125 C 554.4375 259.664062 553.574219 258.445312 552.613281 257.308594 C 551.984375 256.535156 551.292969 255.824219 550.535156 255.175781 C 550.105469 254.898438 549.644531 254.824219 549.148438 254.957031 C 548.5625 255.0625 548.046875 255.3125 547.597656 255.703125 C 547.148438 256.09375 546.832031 256.570312 546.644531 257.132812 C 546.5625 257.457031 546.457031 257.769531 546.320312 258.070312 C 546.160156 258.46875 545.910156 258.792969 545.558594 259.042969 C 545.210938 259.292969 544.824219 259.429688 544.398438 259.453125 C 544.0625 259.417969 543.734375 259.457031 543.414062 259.566406 C 543.097656 259.679688 542.8125 259.851562 542.570312 260.085938 C 542.328125 260.316406 542.144531 260.589844 542.019531 260.90625 C 541.894531 261.21875 541.84375 261.542969 541.859375 261.882812 C 541.832031 262.210938 541.785156 262.542969 541.71875 262.867188 C 541.695312 263.207031 541.585938 263.515625 541.398438 263.796875 C 541.207031 264.078125 540.957031 264.292969 540.652344 264.4375 C 538.957031 265.179688 537.484375 266.230469 536.226562 267.585938 C 535.648438 268.210938 534.949219 268.644531 534.132812 268.886719 C 533.316406 269.128906 532.492188 269.144531 531.667969 268.933594 C 531.191406 268.769531 530.703125 268.730469 530.203125 268.8125 C 529.707031 268.898438 529.257812 269.09375 528.859375 269.402344 C 528.144531 269.855469 527.363281 270.085938 526.515625 270.089844 C 521.046875 270.828125 515.59375 270.128906 510.136719 269.902344 C 509.292969 269.90625 508.480469 269.757812 507.691406 269.457031 C 506.90625 269.15625 506.199219 268.726562 505.574219 268.160156 C 505.175781 267.722656 504.703125 267.398438 504.152344 267.1875 C 503.601562 266.972656 503.03125 266.894531 502.445312 266.949219 C 500.320312 267.175781 498.550781 266.117188 496.777344 265.285156 C 495.175781 264.402344 493.65625 263.402344 492.214844 262.28125 C 491.929688 262.097656 491.691406 261.871094 491.492188 261.597656 C 490.09375 259.546875 488.613281 257.539062 487.375 255.394531 C 486.804688 254.191406 486.390625 252.941406 486.132812 251.636719 C 485.429688 249.074219 484.777344 246.5 484.101562 243.929688 C 483.996094 243.4375 483.777344 243 483.449219 242.617188 C 483.117188 242.234375 482.714844 241.953125 482.242188 241.777344 C 478.390625 240.199219 474.710938 238.292969 471.203125 236.054688 C 467.367188 233.726562 463.707031 231.15625 460.210938 228.34375 C 459.472656 227.734375 458.808594 227.050781 458.21875 226.296875 C 457.628906 225.546875 457.128906 224.738281 456.714844 223.875 C 456.300781 223.011719 455.980469 222.117188 455.761719 221.183594 C 455.542969 220.253906 455.425781 219.308594 455.410156 218.351562 C 455.332031 215.1875 455.640625 212.058594 456.335938 208.96875 C 456.917969 206.707031 457.246094 204.414062 457.320312 202.082031 C 457.296875 201.414062 457.386719 200.757812 457.59375 200.117188 C 458.234375 198.234375 459.292969 196.429688 459.570312 194.503906 C 459.945312 192.546875 460.53125 190.652344 461.332031 188.828125 C 461.675781 187.886719 462.167969 187.03125 462.804688 186.257812 C 464.316406 184.496094 465.898438 182.789062 467.550781 181.160156 C 469.636719 178.921875 472.136719 177.34375 475.054688 176.421875 C 475.835938 176.136719 476.585938 175.785156 477.308594 175.371094 C 477.828125 175.089844 478.382812 174.9375 478.972656 174.914062 C 479.566406 174.890625 480.132812 174.992188 480.671875 175.226562 C 480.984375 175.371094 481.308594 175.414062 481.644531 175.359375 C 481.984375 175.300781 482.273438 175.152344 482.519531 174.914062 C 483.246094 174.167969 484.128906 173.769531 485.171875 173.726562 C 486.824219 173.699219 488.410156 172.949219 490.105469 173.261719 C 490.441406 173.316406 490.769531 173.28125 491.085938 173.152344 C 493.144531 172.390625 495.265625 172.152344 497.445312 172.433594 C 497.871094 172.460938 498.269531 172.367188 498.636719 172.144531 C 499.003906 171.921875 499.273438 171.617188 499.445312 171.226562 C 499.996094 170.363281 500.261719 169.417969 500.242188 168.394531 C 500.222656 168.0625 500.199219 167.734375 500.152344 167.402344 C 499.859375 165.070312 500.03125 162.773438 500.660156 160.511719 C 501.371094 157.761719 501.820312 154.957031 504.082031 153.21875 C 503.972656 152.035156 503.878906 151.214844 503.824219 150.394531 C 503.742188 149.972656 503.785156 149.5625 503.953125 149.167969 C 504.117188 148.769531 504.378906 148.449219 504.734375 148.210938 C 507.429688 146.742188 508.394531 143.996094 509.738281 141.550781 C 510.023438 141.042969 509.808594 140.265625 509.847656 139.613281 C 509.839844 139.273438 509.933594 138.96875 510.128906 138.691406 C 510.328125 138.414062 510.585938 138.226562 510.910156 138.125 C 511.878906 137.890625 512.855469 137.703125 513.828125 137.480469 C 514.828125 137.21875 515.613281 136.660156 516.1875 135.800781 C 517.296875 134.363281 517.738281 134.402344 519.390625 135.632812 C 520.230469 136.257812 520.597656 136.332031 521.035156 135.671875 C 521.21875 135.34375 521.445312 135.050781 521.714844 134.792969 C 521.988281 134.535156 522.289062 134.324219 522.628906 134.15625 C 522.964844 133.992188 523.316406 133.882812 523.6875 133.824219 C 524.058594 133.765625 524.429688 133.765625 524.796875 133.824219 C 525.464844 133.867188 526.125 133.820312 526.78125 133.691406 C 527.449219 133.59375 528.105469 133.644531 528.75 133.839844 C 529.394531 134.039062 529.964844 134.367188 530.464844 134.824219 C 530.714844 135.042969 530.976562 135.246094 531.25 135.433594 C 531.984375 135.929688 532.777344 136.058594 533.628906 135.824219 C 534.429688 135.617188 535.191406 135.28125 535.988281 135.0625 C 537.515625 134.742188 538.960938 134.957031 540.324219 135.714844 C 541.347656 136.171875 541.632812 137.128906 542.113281 137.988281 C 542.210938 138.226562 542.375 138.398438 542.609375 138.503906 C 542.839844 138.613281 543.078125 138.628906 543.320312 138.554688 C 543.863281 138.359375 543.929688 137.8125 543.96875 137.3125 C 543.996094 136.984375 543.96875 136.652344 543.96875 136.320312 C 543.96875 134.828125 543.992188 133.339844 543.960938 131.847656 C 543.890625 130.320312 544.214844 128.878906 544.929688 127.527344 C 545.320312 126.792969 545.632812 126.027344 545.875 125.234375 C 546.125 124.445312 546.269531 123.628906 546.492188 122.679688 C 546.925781 122.765625 547.363281 122.867188 547.804688 122.945312 C 548.378906 123.046875 548.921875 122.769531 548.945312 122.351562 C 548.929688 121.03125 549.011719 119.722656 549.191406 118.414062 C 549.46875 117.125 548.324219 115.847656 549.285156 114.617188 C 550.40625 114.808594 551.523438 115.015625 552.648438 115.175781 C 552.980469 115.183594 553.308594 115.15625 553.632812 115.09375 C 553.871094 115.027344 554.089844 114.910156 554.28125 114.753906 C 554.472656 114.59375 554.625 114.402344 554.734375 114.179688 C 554.847656 113.957031 554.910156 113.71875 554.921875 113.472656 C 554.933594 113.222656 554.894531 112.980469 554.804688 112.746094 C 554.269531 111.746094 553.191406 111.128906 552.9375 109.890625 C 552.808594 109.265625 551.789062 109.277344 551.273438 109.882812 C 550.957031 110.261719 550.746094 110.71875 550.449219 111.109375 C 550.320312 111.222656 550.171875 111.269531 550.003906 111.246094 C 549.855469 111.238281 549.613281 111.152344 549.582031 111.050781 C 549.460938 110.785156 549.390625 110.507812 549.363281 110.214844 C 549.335938 109.925781 549.359375 109.640625 549.429688 109.359375 C 549.5 109.074219 549.613281 108.8125 549.773438 108.566406 C 549.933594 108.324219 550.128906 108.113281 550.359375 107.933594 C 550.472656 107.847656 550.679688 107.886719 550.855469 107.867188 L 551.9375 107.625 Z M 643.660156 206.316406 L 643.753906 205.992188 L 643.515625 206.179688 C 643.726562 205.96875 643.851562 206.011719 643.882812 206.304688 C 643.808594 206.3125 643.726562 206.3125 643.660156 206.316406 Z M 586 73.648438 C 585.714844 73.8125 585.433594 73.992188 585.164062 74.183594 C 585.089844 74.226562 585.027344 74.285156 584.984375 74.359375 C 584.9375 74.433594 584.910156 74.515625 584.90625 74.605469 C 584.902344 74.691406 584.921875 74.773438 584.960938 74.851562 C 585 74.933594 585.054688 74.996094 585.125 75.046875 C 585.234375 75.144531 585.492188 75.234375 585.578125 75.179688 C 585.828125 75.007812 586.167969 74.785156 586.210938 74.539062 C 586.257812 74.253906 586.019531 73.933594 585.941406 73.648438 L 586.78125 73.664062 Z M 548.96875 132.875 C 549.261719 132.859375 549.542969 132.789062 549.808594 132.667969 C 550.074219 132.546875 550.3125 132.382812 550.519531 132.175781 C 550.726562 131.96875 550.890625 131.734375 551.011719 131.46875 C 551.128906 131.199219 551.199219 130.921875 551.21875 130.628906 C 551.277344 130.34375 551.285156 130.054688 551.25 129.765625 C 551.210938 129.476562 551.128906 129.199219 551 128.9375 C 550.871094 128.675781 550.703125 128.441406 550.496094 128.234375 C 550.289062 128.027344 550.054688 127.859375 549.792969 127.730469 C 549.496094 127.5625 549.191406 127.542969 548.878906 127.667969 C 548.589844 127.867188 548.441406 128.136719 548.425781 128.484375 C 548.570312 129.953125 548.792969 131.410156 548.992188 132.882812 C 549.699219 134.109375 549.140625 135.449219 549.34375 136.722656 C 549.410156 137.144531 549.652344 137.296875 549.957031 137.136719 C 550.097656 137.0625 550.191406 136.949219 550.242188 136.800781 C 550.355469 136.449219 550.410156 136.085938 550.410156 135.71875 C 550.410156 135.347656 550.351562 134.988281 550.238281 134.632812 C 550.125 134.28125 549.957031 133.957031 549.742188 133.65625 C 549.527344 133.355469 549.269531 133.097656 548.96875 132.875 Z M 580.808594 225.15625 C 579.710938 226.144531 578.4375 226.777344 576.988281 227.050781 C 576.257812 227.210938 575.984375 228.40625 576.375 229.132812 C 576.480469 229.402344 576.632812 229.640625 576.839844 229.84375 C 577.046875 230.050781 577.285156 230.203125 577.558594 230.304688 C 577.828125 230.40625 578.109375 230.445312 578.398438 230.425781 C 578.6875 230.40625 578.960938 230.324219 579.214844 230.1875 C 579.703125 230.0625 580.113281 229.800781 580.433594 229.414062 C 580.757812 229.023438 580.9375 228.578125 580.972656 228.074219 C 580.996094 227.109375 580.855469 226.140625 580.796875 225.171875 L 582.042969 225.335938 Z M 570.636719 84.472656 C 570.359375 84.546875 570.109375 84.675781 569.886719 84.855469 C 569.660156 85.039062 569.480469 85.253906 569.347656 85.511719 C 569.214844 85.765625 569.140625 86.039062 569.121094 86.324219 C 569.101562 86.613281 569.140625 86.890625 569.238281 87.164062 C 569.300781 87.332031 569.417969 87.4375 569.589844 87.488281 C 569.886719 87.519531 570.296875 87.574219 570.476562 87.414062 C 571.152344 86.875 571.53125 86.175781 571.625 85.320312 C 571.625 85.195312 571.597656 85.074219 571.546875 84.960938 C 571.496094 84.847656 571.421875 84.75 571.328125 84.667969 C 571.230469 84.585938 571.125 84.527344 571.003906 84.492188 C 570.882812 84.460938 570.761719 84.453125 570.636719 84.472656 Z M 618.003906 175.703125 C 617.816406 175.46875 617.65625 175.09375 617.425781 175.042969 C 617.105469 175.035156 616.839844 175.152344 616.628906 175.398438 C 616.410156 175.632812 616.292969 175.910156 616.273438 176.230469 C 616.253906 176.550781 616.34375 176.839844 616.535156 177.097656 C 616.773438 177.304688 617.042969 177.363281 617.34375 177.273438 C 617.628906 177.125 617.835938 176.902344 617.957031 176.609375 C 618.082031 176.3125 618.097656 176.011719 618.003906 175.703125 Z M 600.417969 147.015625 C 600.410156 146.824219 600.363281 146.636719 600.277344 146.460938 C 600.191406 146.289062 600.074219 146.136719 599.929688 146.011719 C 599.78125 145.882812 599.613281 145.792969 599.425781 145.734375 C 599.242188 145.679688 599.050781 145.660156 598.859375 145.683594 C 598.757812 145.703125 598.628906 145.9375 598.636719 146.066406 C 598.671875 146.382812 598.789062 146.664062 598.984375 146.914062 C 599.183594 147.164062 599.429688 147.34375 599.730469 147.449219 C 599.851562 147.515625 600.183594 147.171875 600.417969 147.015625 Z M 512.5 143.269531 C 512.234375 142.722656 511.9375 142.601562 511.589844 142.832031 C 511.296875 142.992188 511.070312 143.214844 510.90625 143.503906 C 510.789062 143.804688 510.816406 144.09375 510.988281 144.367188 C 511.273438 144.507812 511.550781 144.488281 511.816406 144.3125 C 512.089844 143.996094 512.316406 143.648438 512.5 143.269531 Z M 622.882812 80.25 C 623.199219 80.199219 623.433594 80.027344 623.578125 79.738281 C 623.582031 79.414062 623.460938 79.148438 623.207031 78.945312 C 623.117188 78.867188 623.019531 78.808594 622.90625 78.769531 C 622.789062 78.734375 622.675781 78.722656 622.554688 78.738281 C 622.4375 78.753906 622.328125 78.792969 622.226562 78.855469 C 622.125 78.917969 622.042969 79 621.980469 79.101562 C 621.878906 79.390625 621.914062 79.660156 622.078125 79.914062 C 622.296875 80.148438 622.566406 80.257812 622.886719 80.25 Z M 557.195312 147.394531 C 557.113281 147.082031 557.035156 146.769531 556.945312 146.460938 C 556.820312 146.042969 556.554688 145.925781 556.1875 146.160156 C 556.046875 146.25 555.953125 146.375 555.90625 146.535156 C 555.804688 146.84375 555.765625 147.15625 555.789062 147.480469 C 555.8125 147.722656 555.90625 147.9375 556.066406 148.121094 C 556.226562 148.300781 556.429688 148.421875 556.667969 148.472656 C 557.046875 148.554688 557.289062 148.0625 557.195312 147.394531 Z M 567.960938 88.925781 C 567.757812 88.710938 567.570312 88.339844 567.355469 88.324219 C 567.140625 88.304688 566.8125 88.605469 566.703125 88.847656 C 566.574219 89.128906 566.585938 89.40625 566.738281 89.679688 C 567.007812 89.84375 567.285156 89.851562 567.570312 89.710938 C 567.78125 89.574219 567.835938 89.199219 567.960938 88.925781 Z M 676.820312 121.828125 C 676.941406 122.515625 677.582031 122.949219 677.859375 122.671875 C 678.070312 122.449219 678.1875 122.183594 678.210938 121.875 C 678.230469 121.300781 677.800781 120.816406 677.472656 121.007812 C 677.144531 121.199219 676.980469 121.617188 676.820312 121.828125 Z M 533.203125 200.617188 L 532.566406 200.15625 C 532.496094 200.28125 532.367188 200.410156 532.363281 200.539062 C 532.355469 200.894531 532.582031 201.050781 532.941406 200.933594 C 533.050781 200.898438 533.117188 200.726562 533.203125 200.617188 Z M 598.195312 72.527344 L 598.210938 72.207031 L 597.863281 72.347656 Z M 580.117188 162.15625 C 580.007812 162.25 579.792969 162.375 579.808594 162.4375 C 579.894531 162.691406 580 162.9375 580.125 163.171875 C 580.234375 163.078125 580.449219 162.953125 580.429688 162.886719 C 580.347656 162.632812 580.242188 162.386719 580.117188 162.152344 Z M 600.535156 150.121094 L 600.207031 150.324219 L 600.5625 150.449219 Z M 574.210938 227.996094 C 573.992188 228.347656 574.070312 228.519531 574.433594 228.460938 C 574.484375 228.453125 574.535156 228.21875 574.515625 228.101562 C 574.503906 228.042969 574.316406 228.023438 574.210938 227.992188 Z M 572.976562 233.605469 L 572.804688 233.289062 L 572.691406 233.632812 Z M 647.984375 263.175781 C 647.890625 263.085938 647.800781 262.929688 647.710938 262.929688 C 647.617188 262.925781 647.519531 263.085938 647.433594 263.175781 C 647.527344 263.261719 647.617188 263.421875 647.707031 263.421875 C 647.800781 263.421875 647.890625 263.265625 647.984375 263.175781 Z M 505.980469 151.292969 L 506.113281 151.054688 L 505.871094 151.042969 Z M 505.980469 151.292969 " fill-opacity="1" fill-rule="nonzero"/></g><path fill="rgb(100%, 100%, 100%)" d="M 342.828125 85.011719 C 342.640625 92.753906 336.59375 99.644531 329.226562 102.023438 C 323.015625 104.03125 316.167969 103.175781 310.164062 100.511719 C 309.21875 102.652344 307.386719 104.417969 305.140625 105.078125 C 302.214844 105.933594 298.875 104.847656 296.859375 102.585938 C 294.195312 105.425781 290.785156 107.613281 287.167969 109.097656 C 281.6875 111.351562 275.726562 112.152344 269.820312 112.585938 C 264.285156 112.988281 258.566406 113.0625 253.378906 111.097656 C 249.300781 109.550781 245.589844 106.492188 243.859375 102.578125 C 241.65625 105.15625 237.902344 106.4375 234.625 105.457031 C 231.460938 104.507812 229.078125 101.550781 228.527344 98.316406 C 226.859375 99.597656 225.082031 100.726562 223.171875 101.617188 C 218.917969 103.605469 213.921875 104.3125 209.488281 102.777344 C 205.054688 101.238281 201.378906 97.195312 201.015625 92.511719 C 200.714844 88.566406 202.671875 84.785156 205.105469 81.671875 C 209.558594 75.96875 215.832031 71.71875 222.757812 69.652344 C 220.984375 68.910156 219.425781 67.570312 218.464844 65.894531 C 216.703125 62.828125 216.769531 58.925781 218.121094 55.660156 C 219.46875 52.390625 221.972656 49.707031 224.816406 47.601562 C 232 42.285156 241.652344 40.503906 250.28125 42.78125 C 249.984375 40.144531 250.515625 37.390625 251.695312 35 C 253.476562 31.390625 256.601562 28.5625 260.125 26.621094 C 268.535156 21.984375 279.503906 22.4375 287.507812 27.746094 C 294.308594 32.257812 298.714844 40.113281 299.285156 48.238281 C 301.675781 47.632812 304.304688 47.917969 306.460938 49.128906 C 309.503906 50.835938 311.457031 54.292969 311.40625 57.777344 C 314.488281 54.894531 319.683594 54.546875 323.082031 57.074219 C 325.851562 59.136719 327.128906 62.886719 326.5 66.253906 C 330.21875 67.050781 333.746094 68.710938 336.585938 71.230469 C 340.472656 74.6875 342.957031 79.808594 342.828125 85.011719 Z M 342.828125 85.011719 " fill-opacity="1" fill-rule="nonzero"/><g clip-path="url(#id7)"><path fill="rgb(100%, 100%, 100%)" d="M 338.878906 72.59375 C 335.878906 69.125 331.691406 66.882812 327.269531 65.820312 C 327.78125 61.871094 325.929688 57.675781 322.300781 55.84375 C 319.09375 54.222656 315.015625 54.53125 312.039062 56.523438 C 311.738281 53.929688 310.492188 51.480469 308.484375 49.761719 C 306.128906 47.738281 302.953125 47.023438 299.933594 47.53125 C 299.039062 38.148438 293.21875 29.390625 284.613281 25.40625 C 275.777344 21.308594 264.6875 22.140625 256.84375 28.039062 C 252.414062 31.367188 249.3125 36.378906 249.515625 41.992188 C 242.742188 40.480469 235.488281 41.292969 229.21875 44.285156 C 222.910156 47.300781 216.410156 53.070312 216.414062 60.621094 C 216.417969 64.292969 218.097656 67.699219 221.199219 69.5625 C 217.347656 70.894531 213.730469 72.847656 210.523438 75.375 C 206.941406 78.199219 203.597656 81.789062 201.664062 85.960938 C 199.761719 90.0625 199.789062 94.671875 202.511719 98.398438 C 205.097656 101.9375 209.175781 103.898438 213.5 104.160156 C 218.777344 104.484375 223.8125 102.421875 228.054688 99.410156 C 228.953125 102.542969 231.382812 105.21875 234.574219 106.074219 C 237.757812 106.929688 241.21875 105.878906 243.625 103.695312 C 245.144531 106.535156 247.59375 108.8125 250.386719 110.390625 C 253.808594 112.324219 257.769531 113.105469 261.660156 113.328125 C 265.886719 113.566406 270.171875 113.222656 274.375 112.734375 C 278.5 112.257812 282.605469 111.449219 286.5 109.980469 C 290.335938 108.535156 293.902344 106.382812 296.824219 103.503906 C 298.792969 105.332031 301.550781 106.230469 304.226562 105.855469 C 306.925781 105.480469 309.195312 103.675781 310.492188 101.328125 C 316.195312 103.675781 322.636719 104.519531 328.628906 102.800781 C 333.734375 101.339844 338.222656 97.980469 340.988281 93.429688 C 342.527344 90.890625 343.449219 87.988281 343.539062 85.015625 C 343.617188 80.4375 341.859375 76.039062 338.878906 72.59375 Z M 335.660156 97.757812 C 331.445312 101.324219 326.03125 102.828125 320.5625 102.507812 C 317.113281 102.304688 313.730469 101.398438 310.574219 100.011719 C 310.203125 99.847656 309.679688 99.960938 309.496094 100.359375 C 308.476562 102.601562 306.484375 104.402344 303.988281 104.734375 C 301.523438 105.0625 299.054688 103.972656 297.40625 102.171875 C 297.109375 101.84375 296.535156 102.023438 296.285156 102.292969 C 290.902344 107.972656 283.25 110.378906 275.695312 111.417969 C 271.796875 111.949219 267.824219 112.269531 263.890625 112.234375 C 259.980469 112.195312 255.949219 111.695312 252.382812 109.992188 C 248.996094 108.378906 246.070312 105.738281 244.503906 102.285156 C 244.292969 101.816406 243.546875 101.988281 243.28125 102.289062 C 241.234375 104.625 237.902344 105.804688 234.875 104.894531 C 231.882812 104 229.773438 101.167969 229.230469 98.167969 C 229.136719 97.652344 228.402344 97.65625 228.074219 97.90625 C 224.390625 100.714844 220.058594 102.832031 215.363281 103.015625 C 211.214844 103.175781 207.167969 101.730469 204.40625 98.566406 C 201.589844 95.339844 201.054688 91.097656 202.613281 87.15625 C 204.191406 83.171875 207.230469 79.726562 210.464844 76.984375 C 214.089844 73.917969 218.332031 71.589844 222.878906 70.214844 C 223.316406 70.085938 223.800781 69.425781 223.171875 69.152344 C 219.925781 67.746094 218.03125 64.65625 217.84375 61.167969 C 217.660156 57.695312 219.089844 54.386719 221.269531 51.753906 C 225.5625 46.5625 232.242188 43.5 238.828125 42.636719 C 242.566406 42.144531 246.386719 42.394531 250.035156 43.34375 C 250.492188 43.460938 251.039062 43.136719 250.988281 42.636719 C 249.925781 32.289062 260.328125 25.398438 269.417969 24.222656 C 278.621094 23.03125 287.96875 26.855469 293.449219 34.390625 C 296.425781 38.480469 298.210938 43.347656 298.585938 48.390625 C 298.613281 48.75 299.136719 48.867188 299.40625 48.804688 C 302.277344 48.113281 305.339844 48.730469 307.558594 50.722656 C 309.539062 52.496094 310.710938 55.113281 310.703125 57.777344 C 310.699219 58.34375 311.472656 58.546875 311.863281 58.191406 C 314.480469 55.804688 318.519531 55.253906 321.65625 56.9375 C 324.941406 58.703125 326.421875 62.683594 325.796875 66.25 C 325.746094 66.527344 326.003906 66.761719 326.25 66.816406 C 330.59375 67.765625 334.667969 69.890625 337.640625 73.246094 C 340.480469 76.453125 342.199219 80.699219 342.125 85.007812 C 341.964844 89.984375 339.421875 94.574219 335.660156 97.757812 Z M 335.660156 97.757812 " fill-opacity="1" fill-rule="nonzero"/></g><g clip-path="url(#id8)"><path fill="rgb(54.899597%, 80.389404%, 69.018555%)" d="M 630.957031 1140.878906 C 629.828125 1140.878906 628.699219 1140.878906 627.570312 1140.878906 C 624.871094 1140.210938 622.058594 1139.820312 619.5 1138.804688 C 615.640625 1137.269531 612.609375 1134.546875 610.488281 1130.792969 C 605.824219 1132.742188 601.105469 1133.425781 596.203125 1132.527344 C 587.980469 1131.015625 581.910156 1125.707031 580.367188 1118.496094 C 579.605469 1114.960938 580.25 1111.546875 581.804688 1108.328125 C 573.742188 1103.816406 572.484375 1102.277344 570.015625 1093.96875 C 570.015625 1092.84375 570.015625 1091.714844 570.015625 1090.589844 C 570.113281 1090.496094 570.28125 1090.414062 570.296875 1090.308594 C 571.683594 1082.464844 576.820312 1078.148438 584.082031 1076.085938 C 586.808594 1075.3125 589.730469 1075.234375 592.554688 1074.839844 C 594.617188 1066.929688 600.035156 1062.492188 607.867188 1060.8125 C 615.664062 1059.140625 622.632812 1061.003906 628.578125 1066.386719 C 633.40625 1062.867188 638.707031 1061.285156 644.53125 1061.792969 C 652.085938 1062.457031 658.246094 1065.570312 661.601562 1072.683594 C 662.675781 1074.957031 662.910156 1077.625 663.554688 1080.210938 C 671.316406 1081.464844 675.890625 1084 679.21875 1089.515625 C 680.410156 1091.492188 680.917969 1093.882812 681.738281 1096.082031 C 681.738281 1097.066406 681.738281 1098.054688 681.738281 1099.039062 C 680.933594 1103.507812 678.902344 1107.308594 675.414062 1110.175781 C 681.421875 1120.15625 676.203125 1130.183594 667.460938 1134.132812 C 660.722656 1137.171875 653.976562 1137.089844 647.320312 1133.882812 C 646.171875 1133.324219 645.535156 1133.507812 644.609375 1134.320312 C 642.941406 1135.785156 641.230469 1137.367188 639.25 1138.265625 C 636.628906 1139.457031 633.734375 1140.035156 630.957031 1140.878906 Z M 630.957031 1140.878906 " fill-opacity="1" fill-rule="nonzero"/></g><path fill="rgb(100%, 100%, 100%)" d="M 602.671875 1100.183594 C 602.402344 1111.136719 593.835938 1120.882812 583.402344 1124.246094 C 574.601562 1127.089844 564.898438 1125.878906 556.394531 1122.113281 C 555.058594 1125.140625 552.464844 1127.632812 549.277344 1128.566406 C 545.136719 1129.78125 540.40625 1128.242188 537.550781 1125.042969 C 533.773438 1129.0625 528.945312 1132.15625 523.820312 1134.257812 C 516.058594 1137.445312 507.613281 1138.574219 499.242188 1139.191406 C 491.40625 1139.757812 483.300781 1139.863281 475.953125 1137.085938 C 470.175781 1134.898438 464.925781 1130.570312 462.46875 1125.035156 C 459.351562 1128.679688 454.03125 1130.492188 449.386719 1129.101562 C 444.90625 1127.765625 441.53125 1123.582031 440.753906 1119.003906 C 438.390625 1120.816406 435.867188 1122.417969 433.164062 1123.675781 C 427.140625 1126.484375 420.0625 1127.488281 413.78125 1125.3125 C 407.5 1123.136719 402.292969 1117.417969 401.78125 1110.789062 C 401.355469 1105.210938 404.125 1099.863281 407.570312 1095.457031 C 413.882812 1087.390625 422.769531 1081.378906 432.582031 1078.453125 C 430.066406 1077.40625 427.859375 1075.507812 426.496094 1073.136719 C 424 1068.800781 424.097656 1063.28125 426.007812 1058.660156 C 427.921875 1054.035156 431.46875 1050.238281 435.496094 1047.261719 C 445.671875 1039.738281 459.347656 1037.21875 471.570312 1040.445312 C 471.148438 1036.714844 471.902344 1032.820312 473.570312 1029.433594 C 476.09375 1024.324219 480.519531 1020.328125 485.511719 1017.582031 C 497.425781 1011.023438 512.964844 1011.660156 524.304688 1019.171875 C 533.9375 1025.554688 540.179688 1036.664062 540.984375 1048.160156 C 544.375 1047.304688 548.097656 1047.710938 551.15625 1049.417969 C 555.460938 1051.835938 558.230469 1056.726562 558.15625 1061.652344 C 562.519531 1057.578125 569.886719 1057.085938 574.695312 1060.664062 C 578.617188 1063.582031 580.433594 1068.886719 579.539062 1073.644531 C 584.804688 1074.773438 589.800781 1077.121094 593.824219 1080.683594 C 599.335938 1085.574219 602.855469 1092.824219 602.671875 1100.183594 Z M 602.671875 1100.183594 " fill-opacity="1" fill-rule="nonzero"/><g clip-path="url(#id9)"><path fill="rgb(100%, 100%, 100%)" d="M 597.074219 1082.617188 C 592.828125 1077.710938 586.890625 1074.539062 580.628906 1073.03125 C 581.355469 1067.445312 578.730469 1061.511719 573.589844 1058.917969 C 569.046875 1056.625 563.269531 1057.066406 559.054688 1059.886719 C 558.628906 1056.210938 556.863281 1052.746094 554.019531 1050.316406 C 550.683594 1047.457031 546.179688 1046.445312 541.902344 1047.160156 C 540.636719 1033.890625 532.390625 1021.5 520.199219 1015.863281 C 507.683594 1010.066406 491.976562 1011.242188 480.863281 1019.585938 C 474.589844 1024.292969 470.191406 1031.382812 470.484375 1039.324219 C 460.886719 1037.183594 450.609375 1038.335938 441.730469 1042.570312 C 432.796875 1046.835938 423.585938 1055 423.59375 1065.679688 C 423.597656 1070.875 425.976562 1075.691406 430.371094 1078.328125 C 424.917969 1080.214844 419.789062 1082.972656 415.246094 1086.554688 C 410.171875 1090.546875 405.4375 1095.621094 402.699219 1101.527344 C 400.003906 1107.328125 400.042969 1113.851562 403.898438 1119.121094 C 407.5625 1124.125 413.339844 1126.898438 419.464844 1127.273438 C 426.941406 1127.726562 434.074219 1124.8125 440.082031 1120.554688 C 441.355469 1124.984375 444.796875 1128.765625 449.320312 1129.980469 C 453.828125 1131.1875 458.730469 1129.703125 462.140625 1126.613281 C 464.289062 1130.628906 467.761719 1133.851562 471.714844 1136.082031 C 476.566406 1138.820312 482.171875 1139.925781 487.6875 1140.238281 C 493.675781 1140.578125 499.746094 1140.09375 505.699219 1139.402344 C 511.542969 1138.726562 517.359375 1137.585938 522.875 1135.507812 C 528.3125 1133.460938 533.359375 1130.414062 537.5 1126.339844 C 540.289062 1128.929688 544.195312 1130.199219 547.984375 1129.671875 C 551.808594 1129.140625 555.027344 1126.582031 556.863281 1123.265625 C 564.941406 1126.582031 574.066406 1127.78125 582.554688 1125.351562 C 589.789062 1123.28125 596.144531 1118.527344 600.0625 1112.09375 C 602.246094 1108.5 603.546875 1104.394531 603.679688 1100.1875 C 603.789062 1093.710938 601.292969 1087.492188 597.074219 1082.617188 Z M 592.519531 1118.210938 C 586.546875 1123.261719 578.878906 1125.386719 571.128906 1124.933594 C 566.242188 1124.648438 561.449219 1123.363281 556.980469 1121.402344 C 556.453125 1121.171875 555.714844 1121.328125 555.453125 1121.894531 C 554.007812 1125.066406 551.1875 1127.613281 547.648438 1128.085938 C 544.160156 1128.546875 540.660156 1127.003906 538.324219 1124.457031 C 537.902344 1123.996094 537.09375 1124.25 536.734375 1124.628906 C 529.109375 1132.664062 518.269531 1136.070312 507.570312 1137.535156 C 502.050781 1138.289062 496.417969 1138.746094 490.84375 1138.691406 C 485.308594 1138.640625 479.59375 1137.929688 474.546875 1135.523438 C 469.746094 1133.238281 465.601562 1129.5 463.386719 1124.621094 C 463.085938 1123.953125 462.023438 1124.199219 461.652344 1124.625 C 458.753906 1127.929688 454.03125 1129.597656 449.746094 1128.3125 C 445.507812 1127.042969 442.519531 1123.035156 441.746094 1118.792969 C 441.613281 1118.0625 440.574219 1118.070312 440.105469 1118.421875 C 434.890625 1122.394531 428.757812 1125.394531 422.101562 1125.648438 C 416.230469 1125.878906 410.492188 1123.835938 406.578125 1119.355469 C 402.59375 1114.796875 401.832031 1108.792969 404.042969 1103.21875 C 406.277344 1097.582031 410.582031 1092.707031 415.164062 1088.828125 C 420.296875 1084.488281 426.308594 1081.195312 432.75 1079.253906 C 433.367188 1079.066406 434.054688 1078.132812 433.164062 1077.746094 C 428.566406 1075.757812 425.882812 1071.390625 425.617188 1066.449219 C 425.355469 1061.539062 427.378906 1056.863281 430.46875 1053.132812 C 436.550781 1045.792969 446.015625 1041.457031 455.34375 1040.238281 C 460.640625 1039.542969 466.050781 1039.894531 471.21875 1041.238281 C 471.867188 1041.40625 472.640625 1040.941406 472.566406 1040.238281 C 471.0625 1025.601562 485.800781 1015.851562 498.675781 1014.191406 C 511.714844 1012.5 524.953125 1017.910156 532.71875 1028.570312 C 536.933594 1034.355469 539.464844 1041.242188 540 1048.375 C 540.035156 1048.882812 540.773438 1049.050781 541.160156 1048.960938 C 545.222656 1047.988281 549.5625 1048.855469 552.710938 1051.675781 C 555.511719 1054.1875 557.171875 1057.886719 557.160156 1061.652344 C 557.15625 1062.457031 558.25 1062.746094 558.808594 1062.242188 C 562.511719 1058.867188 568.234375 1058.085938 572.679688 1060.46875 C 577.332031 1062.964844 579.429688 1068.597656 578.539062 1073.640625 C 578.472656 1074.035156 578.835938 1074.363281 579.1875 1074.441406 C 585.335938 1075.789062 591.109375 1078.792969 595.320312 1083.539062 C 599.34375 1088.074219 601.777344 1094.085938 601.671875 1100.175781 C 601.449219 1107.214844 597.84375 1113.707031 592.519531 1118.210938 Z M 592.519531 1118.210938 " fill-opacity="1" fill-rule="nonzero"/></g></svg>